<svg xmlns="http://www.w3.org/2000/svg" xmlns:xlink="http://www.w3.org/1999/xlink" width="1920" zoomAndPan="magnify" viewBox="0 0 1440 809.999993" height="1080" preserveAspectRatio="xMidYMid meet" version="1.0"><defs><g/><clipPath id="b5450d7e68"><path d="M 91.152344 75.523438 L 634.902344 75.523438 L 634.902344 289.273438 L 91.152344 289.273438 Z M 91.152344 75.523438 " clip-rule="nonzero"/></clipPath><clipPath id="1463522fd3"><path d="M 871.027344 103.511719 L 1359.277344 103.511719 L 1359.277344 680.261719 L 871.027344 680.261719 Z M 871.027344 103.511719 " clip-rule="nonzero"/></clipPath></defs><g clip-path="url(#b5450d7e68)"><path fill="#ffffff" d="M 314.636719 289.050781 C 295.566406 289.050781 289.652344 257.394531 280.058594 196.695312 C 276.535156 174.25 271.453125 142.25 266.296875 128.792969 C 263.113281 138.082031 259.964844 155.632812 257.691406 168.222656 C 250.109375 210.382812 242.945312 250.226562 217.578125 250.226562 C 196.953125 250.226562 191.949219 222.855469 187.097656 196.429688 C 185.164062 185.964844 182.09375 169.207031 178.644531 163.824219 C 175.078125 168.753906 171.402344 184.183594 169.125 193.8125 C 163.402344 217.851562 157.980469 240.523438 139.933594 240.523438 C 122.378906 240.523438 116.539062 225.585938 112.671875 215.652344 C 108.390625 204.65625 106.457031 201.699219 101.109375 201.699219 C 95.765625 201.699219 91.402344 197.339844 91.402344 191.992188 C 91.402344 186.648438 95.765625 182.289062 101.109375 182.289062 C 120.484375 182.289062 126.664062 198.136719 130.757812 208.636719 C 134.816406 219.023438 136.371094 221.109375 139.933594 221.109375 C 143.230469 218.722656 147.78125 199.574219 150.246094 189.300781 C 155.855469 165.71875 161.164062 143.464844 178.757812 143.464844 C 197.105469 143.464844 201.503906 167.464844 206.167969 192.902344 C 208.289062 204.464844 212.726562 228.542969 217.691406 230.855469 C 226.714844 230.816406 235.359375 182.855469 238.582031 164.808594 C 245.105469 128.5625 249.425781 104.640625 266.109375 104.640625 C 284.382812 104.640625 289.726562 133.53125 299.246094 193.660156 C 303.148438 218.265625 309.441406 258.304688 315.738281 268.578125 C 320.589844 262.4375 326.996094 236.425781 330.5625 221.980469 C 338.710938 188.960938 345.15625 162.875 363.167969 162.875 C 380.832031 162.875 386.140625 182.171875 390.386719 197.679688 C 393.003906 207.082031 396.492188 219.820312 401.269531 220.996094 C 408.28125 214.816406 414.691406 176.070312 418.558594 152.714844 C 426.214844 106.234375 431.296875 75.523438 450.519531 75.523438 C 469.855469 75.523438 474.898438 105.4375 482.78125 162.761719 C 486.421875 189.226562 492.449219 233.054688 499.84375 240.371094 C 505.039062 238.359375 511.824219 217.546875 515.121094 207.273438 C 522.210938 185.433594 529.53125 162.875 547.578125 162.875 C 561.871094 162.875 567.707031 179.027344 573.925781 196.125 C 576.730469 203.820312 582.53125 219.898438 586.476562 221.109375 C 591.667969 221.109375 597.699219 210.722656 602.132812 203.140625 C 608.125 192.902344 614.265625 182.289062 625.222656 182.289062 C 630.566406 182.289062 634.929688 186.648438 634.929688 191.992188 C 634.929688 196.960938 631.210938 201.015625 626.4375 201.621094 C 624.503906 203.292969 621.164062 209.015625 618.890625 212.921875 C 612.140625 224.558594 602.816406 240.523438 586.398438 240.523438 C 569.375 240.523438 562.097656 220.429688 555.691406 202.722656 C 553.339844 196.351562 549.625 186.003906 546.816406 182.667969 C 542.457031 185.851562 536.542969 204.199219 533.585938 213.261719 C 526.15625 236.199219 518.496094 259.933594 499.046875 259.933594 C 477.589844 259.933594 471.824219 225.773438 463.523438 165.414062 C 460.375 142.515625 455.828125 109.378906 450.480469 97.742188 C 445.550781 108.242188 440.925781 136.375 437.703125 155.863281 C 429.894531 203.175781 423.714844 240.523438 401.988281 240.523438 C 382.046875 240.523438 376.285156 219.632812 371.695312 202.796875 C 370.257812 197.679688 366.691406 184.75 363.925781 182.589844 C 358.957031 187.972656 353.042969 212.011719 349.402344 226.644531 C 341.140625 260.125 334.011719 289.050781 314.636719 289.050781 " fill-opacity="1" fill-rule="nonzero"/></g><g fill="#ffffff" fill-opacity="1"><g transform="translate(93.031732, 610.388441)"><g><path d="M 195.046875 -302.46875 L 195.046875 -241.96875 L 90.921875 -241.96875 L 90.921875 -181.84375 L 190.640625 -181.84375 L 190.640625 -121.359375 L 90.921875 -121.359375 L 90.921875 -60.5 L 195.046875 -60.5 L 195.046875 0 L 22 0 L 22 -302.46875 Z M 195.046875 -302.46875 "/></g></g></g><g fill="#ffffff" fill-opacity="1"><g transform="translate(262.042917, 610.388441)"><g><path d="M 122.09375 -140.421875 C 109.863281 -140.421875 99.347656 -135.894531 90.546875 -126.84375 C 81.753906 -117.800781 77.359375 -106.925781 77.359375 -94.21875 C 77.359375 -81.269531 81.753906 -70.269531 90.546875 -61.21875 C 99.347656 -52.175781 109.863281 -47.65625 122.09375 -47.65625 C 127.957031 -47.65625 133.515625 -48.390625 138.765625 -49.859375 C 144.023438 -51.328125 147.875 -52.796875 150.3125 -54.265625 L 153.609375 -56.453125 L 175.609375 -11.359375 C 173.898438 -10.140625 171.515625 -8.613281 168.453125 -6.78125 C 165.398438 -4.945312 158.4375 -2.441406 147.5625 0.734375 C 136.6875 3.910156 125.015625 5.5 112.546875 5.5 C 84.929688 5.5 60.675781 -4.210938 39.78125 -23.640625 C 18.882812 -43.078125 8.4375 -66.359375 8.4375 -93.484375 C 8.4375 -120.859375 18.882812 -144.382812 39.78125 -164.0625 C 60.675781 -183.738281 84.929688 -193.578125 112.546875 -193.578125 C 125.015625 -193.578125 136.503906 -192.109375 147.015625 -189.171875 C 157.523438 -186.242188 164.976562 -183.3125 169.375 -180.375 L 175.609375 -175.984375 L 153.609375 -131.625 C 145.546875 -137.488281 135.039062 -140.421875 122.09375 -140.421875 Z M 122.09375 -140.421875 "/></g></g></g><g fill="#ffffff" fill-opacity="1"><g transform="translate(398.424623, 610.388441)"><g><path d="M 22 0 L 22 -315.296875 L 86.890625 -315.296875 L 86.890625 -168.28125 L 87.625 -168.28125 C 104.488281 -185.144531 122.453125 -193.578125 141.515625 -193.578125 C 150.804688 -193.578125 160.035156 -192.351562 169.203125 -189.90625 C 178.367188 -187.46875 187.164062 -183.679688 195.59375 -178.546875 C 204.03125 -173.410156 210.875 -166.132812 216.125 -156.71875 C 221.382812 -147.3125 224.015625 -136.378906 224.015625 -123.921875 L 224.015625 0 L 159.109375 0 L 159.109375 -106.328125 C 159.109375 -116.097656 155.992188 -124.648438 149.765625 -131.984375 C 143.535156 -139.316406 135.410156 -142.984375 125.390625 -142.984375 C 115.609375 -142.984375 106.742188 -139.191406 98.796875 -131.609375 C 90.859375 -124.035156 86.890625 -115.609375 86.890625 -106.328125 L 86.890625 0 Z M 22 0 "/></g></g></g><g fill="#ffffff" fill-opacity="1"><g transform="translate(597.132317, 610.388441)"><g><path d="M 39.78125 -22.359375 C 18.882812 -40.941406 8.4375 -64.773438 8.4375 -93.859375 C 8.4375 -122.941406 19.3125 -146.832031 41.0625 -165.53125 C 62.8125 -184.226562 89.695312 -193.578125 121.71875 -193.578125 C 153.25 -193.578125 179.828125 -184.164062 201.453125 -165.34375 C 223.085938 -146.53125 233.90625 -122.703125 233.90625 -93.859375 C 233.90625 -65.015625 223.332031 -41.242188 202.1875 -22.546875 C 181.050781 -3.847656 154.226562 5.5 121.71875 5.5 C 87.988281 5.5 60.675781 -3.785156 39.78125 -22.359375 Z M 90 -125.75 C 81.570312 -117.4375 77.359375 -106.800781 77.359375 -93.84375 C 77.359375 -80.894531 81.390625 -70.328125 89.453125 -62.140625 C 97.523438 -53.953125 108.160156 -49.859375 121.359375 -49.859375 C 134.066406 -49.859375 144.515625 -54.015625 152.703125 -62.328125 C 160.890625 -70.640625 164.984375 -81.148438 164.984375 -93.859375 C 164.984375 -106.804688 160.765625 -117.4375 152.328125 -125.75 C 143.898438 -134.0625 133.578125 -138.21875 121.359375 -138.21875 C 108.890625 -138.21875 98.4375 -134.0625 90 -125.75 Z M 90 -125.75 "/></g></g></g><g clip-path="url(#1463522fd3)"><path fill="#ffffff" d="M 1070.742188 504.226562 C 1070.742188 494.445312 1062.820312 486.519531 1053.039062 486.519531 C 1043.261719 486.519531 1035.335938 494.445312 1035.335938 504.226562 C 1035.335938 514.003906 1043.261719 521.929688 1053.039062 521.929688 C 1062.820312 521.929688 1070.742188 514.003906 1070.742188 504.226562 Z M 1018.003906 504.226562 C 1018.003906 494.445312 1010.078125 486.519531 1000.300781 486.519531 C 990.523438 486.519531 982.59375 494.445312 982.59375 504.226562 C 982.59375 514.003906 990.523438 521.929688 1000.300781 521.929688 C 1010.078125 521.929688 1018.003906 514.003906 1018.003906 504.226562 Z M 965.265625 504.226562 C 965.265625 494.445312 957.339844 486.519531 947.558594 486.519531 C 937.78125 486.519531 929.855469 494.445312 929.855469 504.226562 C 929.855469 514.003906 937.78125 521.929688 947.558594 521.929688 C 957.339844 521.929688 965.265625 514.003906 965.265625 504.226562 Z M 1000.300781 381.714844 C 1036.503906 381.714844 1064.941406 392.265625 1082.542969 412.230469 C 1091.929688 422.882812 1088.21875 433.941406 1082.1875 440.171875 C 1073.976562 448.664062 1058.898438 451.625 1043.714844 439.105469 C 1024.566406 423.3125 1009.246094 403.742188 998.386719 381.726562 C 999.027344 381.714844 999.664062 381.714844 1000.300781 381.714844 Z M 1076.714844 679.433594 C 1078.917969 678.429688 1080.371094 676.277344 1080.484375 673.863281 L 1084.050781 596.558594 C 1103.765625 579.792969 1117.824219 557.894531 1124.792969 533.050781 C 1125.753906 529.617188 1123.753906 526.058594 1120.324219 525.097656 C 1116.90625 524.136719 1113.339844 526.136719 1112.378906 529.566406 C 1105.875 552.765625 1092.488281 573.117188 1073.671875 588.421875 C 1072.25 589.578125 1071.386719 591.292969 1071.300781 593.125 L 1068.183594 660.703125 L 1011.289062 615.660156 C 1010.054688 614.683594 1008.5 614.1875 1006.929688 614.28125 C 1004.523438 614.414062 1002.355469 614.480469 1000.300781 614.480469 C 936.125 614.480469 883.917969 562.269531 883.917969 498.09375 C 883.917969 439.246094 927.820312 390.457031 984.597656 382.765625 C 996.34375 408.292969 1013.589844 430.972656 1035.515625 449.054688 C 1056.929688 466.707031 1079.519531 461.472656 1091.457031 449.140625 C 1104.027344 436.144531 1104.339844 417.464844 1092.214844 403.710938 C 1078.183594 387.792969 1050.851562 368.820312 1000.300781 368.820312 C 997.761719 368.820312 995.234375 368.894531 992.730469 369.042969 C 984.117188 347.515625 979.550781 324.0625 979.550781 299.804688 C 979.550781 198.738281 1061.769531 116.519531 1162.832031 116.519531 C 1263.890625 116.519531 1346.109375 198.738281 1346.109375 299.804688 C 1346.109375 355.1875 1321.421875 407.035156 1278.378906 442.042969 C 1276.957031 443.199219 1276.09375 444.914062 1276.003906 446.746094 L 1270.875 557.976562 L 1177.625 484.152344 C 1174.835938 481.9375 1170.78125 482.414062 1168.570312 485.199219 C 1166.359375 487.996094 1166.828125 492.050781 1169.625 494.261719 L 1272.730469 575.886719 C 1274.628906 577.390625 1277.207031 577.707031 1279.40625 576.703125 C 1281.605469 575.699219 1283.058594 573.550781 1283.175781 571.136719 L 1288.757812 450.195312 C 1333.441406 412.765625 1359.003906 358.117188 1359.003906 299.804688 C 1359.003906 191.632812 1271 103.625 1162.832031 103.625 C 1054.660156 103.625 966.65625 191.632812 966.65625 299.804688 C 966.65625 324.484375 971.085938 348.394531 979.460938 370.5 C 918.046875 380.492188 871.023438 433.90625 871.023438 498.09375 C 871.023438 569.378906 929.015625 627.371094 1000.300781 627.371094 C 1001.863281 627.371094 1003.476562 627.335938 1005.183594 627.273438 L 1070.042969 678.621094 C 1071.199219 679.539062 1072.617188 680.015625 1074.042969 680.015625 C 1074.949219 680.015625 1075.863281 679.820312 1076.714844 679.433594 Z M 1245.769531 293.335938 C 1245.769531 282.273438 1236.796875 273.300781 1225.734375 273.300781 C 1214.671875 273.300781 1205.699219 282.273438 1205.699219 293.335938 C 1205.699219 304.402344 1214.671875 313.367188 1225.734375 313.367188 C 1236.796875 313.367188 1245.769531 304.402344 1245.769531 293.335938 Z M 1186.089844 293.335938 C 1186.089844 282.273438 1177.121094 273.300781 1166.054688 273.300781 C 1154.988281 273.300781 1146.015625 282.273438 1146.015625 293.335938 C 1146.015625 304.402344 1154.988281 313.367188 1166.054688 313.367188 C 1177.121094 313.367188 1186.089844 304.402344 1186.089844 293.335938 Z M 1106.371094 313.367188 C 1095.304688 313.367188 1086.332031 304.402344 1086.332031 293.335938 C 1086.332031 282.273438 1095.304688 273.300781 1106.371094 273.300781 C 1117.433594 273.300781 1126.40625 282.273438 1126.40625 293.335938 C 1126.40625 304.402344 1117.433594 313.367188 1106.371094 313.367188 " fill-opacity="1" fill-rule="nonzero"/></g></svg>