<svg xmlns="http://www.w3.org/2000/svg" xmlns:xlink="http://www.w3.org/1999/xlink" width="500" zoomAndPan="magnify" viewBox="0 0 375 374.999991" height="500" preserveAspectRatio="xMidYMid meet" version="1.0"><defs><clipPath id="30e60ac5bc"><path d="M 0 37.5 L 375 37.5 L 375 337 L 0 337 Z M 0 37.5 " clip-rule="nonzero"/></clipPath></defs><g clip-path="url(#30e60ac5bc)"><path fill="#000000" d="M 77.953125 37.441406 C 76.222656 37.445312 74.679688 37.988281 73.324219 39.0625 C 29.046875 73.257812 0.46875 126.886719 0.46875 187.125 C 0.46875 247.363281 29.046875 300.996094 73.324219 335.1875 C 73.710938 335.503906 74.125 335.78125 74.566406 336.011719 C 75.007812 336.246094 75.46875 336.433594 75.949219 336.574219 C 76.429688 336.714844 76.917969 336.808594 77.414062 336.851562 C 77.914062 336.894531 78.410156 336.886719 78.910156 336.832031 C 79.40625 336.773438 79.890625 336.667969 80.367188 336.515625 C 80.84375 336.359375 81.296875 336.160156 81.734375 335.914062 C 82.167969 335.671875 82.578125 335.382812 82.953125 335.058594 C 83.332031 334.730469 83.675781 334.367188 83.980469 333.972656 C 84.285156 333.578125 84.550781 333.15625 84.769531 332.707031 C 84.992188 332.257812 85.167969 331.792969 85.292969 331.308594 C 85.421875 330.824219 85.5 330.335938 85.53125 329.835938 C 85.558594 329.335938 85.539062 328.839844 85.46875 328.34375 C 85.398438 327.847656 85.277344 327.367188 85.113281 326.894531 C 84.945312 326.421875 84.730469 325.972656 84.472656 325.542969 C 84.214844 325.117188 83.917969 324.71875 83.582031 324.347656 C 83.246094 323.980469 82.875 323.648438 82.46875 323.351562 C 41.710938 291.875 15.429688 242.636719 15.429688 187.125 C 15.429688 131.613281 41.710938 82.375 82.46875 50.898438 C 83.097656 50.425781 83.636719 49.871094 84.085938 49.226562 C 84.539062 48.585938 84.878906 47.890625 85.113281 47.140625 C 85.347656 46.390625 85.457031 45.621094 85.449219 44.835938 C 85.4375 44.050781 85.308594 43.289062 85.058594 42.542969 C 84.8125 41.800781 84.453125 41.113281 83.988281 40.480469 C 83.519531 39.847656 82.96875 39.304688 82.332031 38.847656 C 81.691406 38.386719 81 38.039062 80.253906 37.800781 C 79.503906 37.558594 78.738281 37.441406 77.953125 37.441406 Z M 296.8125 37.441406 C 296.035156 37.464844 295.28125 37.605469 294.550781 37.859375 C 293.820312 38.117188 293.144531 38.480469 292.523438 38.945312 C 291.90625 39.414062 291.371094 39.960938 290.925781 40.59375 C 290.476562 41.226562 290.132812 41.914062 289.898438 42.652344 C 289.664062 43.390625 289.546875 44.148438 289.546875 44.921875 C 289.546875 45.699219 289.664062 46.457031 289.902344 47.195312 C 290.136719 47.933594 290.480469 48.617188 290.925781 49.25 C 291.375 49.882812 291.910156 50.433594 292.53125 50.898438 C 333.289062 82.375 359.570312 131.613281 359.570312 187.125 C 359.570312 242.636719 333.289062 291.875 292.53125 323.351562 C 292.125 323.648438 291.753906 323.980469 291.417969 324.347656 C 291.082031 324.71875 290.785156 325.117188 290.527344 325.542969 C 290.269531 325.972656 290.054688 326.421875 289.890625 326.894531 C 289.722656 327.367188 289.601562 327.847656 289.53125 328.34375 C 289.460938 328.839844 289.441406 329.335938 289.46875 329.835938 C 289.5 330.335938 289.578125 330.824219 289.707031 331.308594 C 289.832031 331.792969 290.007812 332.257812 290.230469 332.707031 C 290.449219 333.15625 290.714844 333.578125 291.019531 333.972656 C 291.324219 334.367188 291.667969 334.730469 292.046875 335.058594 C 292.421875 335.382812 292.832031 335.671875 293.265625 335.914062 C 293.703125 336.160156 294.15625 336.359375 294.632812 336.515625 C 295.109375 336.667969 295.59375 336.773438 296.089844 336.832031 C 296.589844 336.886719 297.085938 336.894531 297.585938 336.851562 C 298.082031 336.808594 298.570312 336.714844 299.050781 336.574219 C 299.53125 336.433594 299.992188 336.246094 300.433594 336.011719 C 300.875 335.78125 301.289062 335.503906 301.675781 335.1875 C 345.953125 300.996094 374.53125 247.363281 374.53125 187.125 C 374.53125 126.886719 345.953125 73.257812 301.675781 39.0625 C 300.253906 37.929688 298.628906 37.390625 296.8125 37.441406 Z M 114.25 75.988281 C 112.519531 75.925781 110.957031 76.410156 109.558594 77.433594 C 75.285156 101.828125 52.835938 141.878906 52.835938 187.125 C 52.835938 232.375 75.285156 272.421875 109.558594 296.816406 C 109.957031 297.125 110.382812 297.390625 110.835938 297.609375 C 111.289062 297.832031 111.757812 298.007812 112.246094 298.132812 C 112.734375 298.261719 113.226562 298.335938 113.730469 298.363281 C 114.234375 298.390625 114.734375 298.367188 115.230469 298.292969 C 115.730469 298.21875 116.214844 298.097656 116.6875 297.921875 C 117.160156 297.75 117.613281 297.535156 118.042969 297.269531 C 118.472656 297.007812 118.871094 296.703125 119.238281 296.359375 C 119.605469 296.015625 119.933594 295.640625 120.226562 295.226562 C 120.519531 294.816406 120.765625 294.382812 120.96875 293.921875 C 121.175781 293.460938 121.332031 292.984375 121.4375 292.492188 C 121.546875 292.003906 121.601562 291.503906 121.609375 291 C 121.617188 290.496094 121.574219 290 121.480469 289.503906 C 121.386719 289.007812 121.246094 288.527344 121.054688 288.0625 C 120.863281 287.597656 120.628906 287.152344 120.351562 286.734375 C 120.070312 286.316406 119.75 285.929688 119.394531 285.574219 C 119.035156 285.222656 118.644531 284.90625 118.226562 284.632812 C 87.726562 262.925781 67.800781 227.433594 67.800781 187.125 C 67.800781 146.816406 87.726562 111.324219 118.226562 89.621094 C 118.871094 89.175781 119.433594 88.640625 119.910156 88.015625 C 120.390625 87.390625 120.761719 86.710938 121.023438 85.96875 C 121.285156 85.230469 121.429688 84.464844 121.453125 83.679688 C 121.472656 82.894531 121.375 82.125 121.15625 81.371094 C 120.933594 80.617188 120.605469 79.914062 120.164062 79.265625 C 119.722656 78.613281 119.191406 78.046875 118.574219 77.5625 C 117.953125 77.082031 117.273438 76.703125 116.535156 76.433594 C 115.796875 76.167969 115.035156 76.015625 114.25 75.988281 Z M 261.261719 75.988281 C 260.453125 75.960938 259.664062 76.066406 258.890625 76.296875 C 258.117188 76.527344 257.398438 76.875 256.738281 77.339844 C 256.074219 77.800781 255.503906 78.355469 255.023438 79.003906 C 254.542969 79.652344 254.175781 80.359375 253.921875 81.128906 C 253.671875 81.894531 253.546875 82.683594 253.546875 83.488281 C 253.550781 84.296875 253.679688 85.082031 253.9375 85.847656 C 254.195312 86.613281 254.566406 87.320312 255.050781 87.964844 C 255.535156 88.609375 256.109375 89.160156 256.773438 89.621094 C 287.273438 111.324219 307.199219 146.816406 307.199219 187.125 C 307.199219 227.433594 287.273438 262.925781 256.773438 284.632812 C 256.355469 284.90625 255.964844 285.222656 255.605469 285.574219 C 255.25 285.929688 254.929688 286.316406 254.648438 286.734375 C 254.371094 287.152344 254.136719 287.597656 253.945312 288.0625 C 253.753906 288.527344 253.613281 289.007812 253.519531 289.503906 C 253.425781 290 253.382812 290.496094 253.390625 291 C 253.398438 291.503906 253.453125 292.003906 253.5625 292.492188 C 253.667969 292.984375 253.824219 293.460938 254.027344 293.921875 C 254.234375 294.382812 254.480469 294.816406 254.773438 295.226562 C 255.066406 295.640625 255.394531 296.015625 255.761719 296.359375 C 256.128906 296.703125 256.527344 297.007812 256.957031 297.269531 C 257.386719 297.535156 257.839844 297.75 258.3125 297.921875 C 258.785156 298.097656 259.269531 298.21875 259.769531 298.292969 C 260.265625 298.367188 260.765625 298.390625 261.269531 298.363281 C 261.773438 298.335938 262.265625 298.261719 262.753906 298.132812 C 263.242188 298.007812 263.710938 297.832031 264.164062 297.609375 C 264.617188 297.390625 265.042969 297.125 265.441406 296.816406 C 299.714844 272.421875 322.164062 232.375 322.164062 187.125 C 322.164062 141.878906 299.714844 101.828125 265.441406 77.433594 C 264.195312 76.519531 262.804688 76.039062 261.261719 75.988281 Z M 150.488281 114.828125 C 149.027344 114.777344 147.667969 115.128906 146.410156 115.878906 C 121.808594 130.101562 105.207031 156.703125 105.207031 187.125 C 105.207031 217.546875 121.808594 244.152344 146.410156 258.375 C 146.835938 258.621094 147.28125 258.824219 147.746094 258.980469 C 148.214844 259.140625 148.691406 259.253906 149.175781 259.316406 C 149.664062 259.382812 150.15625 259.398438 150.644531 259.367188 C 151.136719 259.335938 151.621094 259.257812 152.09375 259.132812 C 152.570312 259.003906 153.027344 258.832031 153.46875 258.617188 C 153.910156 258.398438 154.328125 258.140625 154.71875 257.839844 C 155.109375 257.542969 155.464844 257.207031 155.789062 256.839844 C 156.117188 256.46875 156.402344 256.070312 156.648438 255.644531 C 156.894531 255.21875 157.09375 254.773438 157.253906 254.308594 C 157.414062 253.84375 157.523438 253.367188 157.589844 252.878906 C 157.652344 252.390625 157.667969 251.902344 157.636719 251.410156 C 157.605469 250.917969 157.523438 250.4375 157.398438 249.960938 C 157.269531 249.484375 157.097656 249.027344 156.882812 248.585938 C 156.664062 248.144531 156.40625 247.730469 156.105469 247.339844 C 155.804688 246.949219 155.472656 246.59375 155.101562 246.269531 C 154.730469 245.945312 154.332031 245.660156 153.90625 245.414062 C 133.757812 233.765625 120.167969 212.109375 120.167969 187.125 C 120.167969 162.140625 133.757812 140.488281 153.90625 128.839844 C 154.621094 128.441406 155.253906 127.9375 155.804688 127.332031 C 156.355469 126.726562 156.792969 126.046875 157.121094 125.296875 C 157.449219 124.546875 157.644531 123.761719 157.714844 122.949219 C 157.785156 122.132812 157.726562 121.328125 157.53125 120.53125 C 157.335938 119.734375 157.019531 118.992188 156.582031 118.300781 C 156.144531 117.609375 155.609375 117.007812 154.972656 116.492188 C 154.335938 115.976562 153.632812 115.574219 152.867188 115.289062 C 152.097656 115.003906 151.304688 114.851562 150.488281 114.828125 Z M 224.292969 114.828125 C 223.484375 114.871094 222.703125 115.046875 221.949219 115.347656 C 221.195312 115.648438 220.511719 116.058594 219.890625 116.582031 C 219.273438 117.105469 218.75 117.714844 218.332031 118.40625 C 217.910156 119.097656 217.609375 119.839844 217.425781 120.628906 C 217.246094 121.421875 217.195312 122.21875 217.273438 123.027344 C 217.355469 123.832031 217.558594 124.605469 217.890625 125.347656 C 218.21875 126.085938 218.660156 126.753906 219.207031 127.351562 C 219.753906 127.949219 220.382812 128.445312 221.09375 128.839844 C 241.242188 140.488281 254.832031 162.140625 254.832031 187.125 C 254.832031 212.109375 241.242188 233.765625 221.09375 245.414062 C 220.667969 245.660156 220.269531 245.945312 219.902344 246.269531 C 219.535156 246.59375 219.199219 246.949219 218.902344 247.339844 C 218.601562 247.730469 218.347656 248.148438 218.128906 248.585938 C 217.914062 249.027344 217.742188 249.484375 217.613281 249.960938 C 217.488281 250.4375 217.410156 250.917969 217.378906 251.40625 C 217.347656 251.898438 217.363281 252.386719 217.425781 252.875 C 217.492188 253.359375 217.601562 253.835938 217.761719 254.300781 C 217.917969 254.765625 218.121094 255.210938 218.367188 255.636719 C 218.613281 256.0625 218.898438 256.460938 219.222656 256.828125 C 219.546875 257.199219 219.902344 257.53125 220.292969 257.832031 C 220.683594 258.128906 221.097656 258.386719 221.539062 258.605469 C 221.980469 258.820312 222.4375 258.992188 222.910156 259.121094 C 223.386719 259.246094 223.867188 259.328125 224.359375 259.359375 C 224.847656 259.390625 225.335938 259.375 225.824219 259.3125 C 226.3125 259.246094 226.789062 259.136719 227.253906 258.976562 C 227.71875 258.820312 228.164062 258.617188 228.589844 258.375 C 253.191406 244.152344 269.792969 217.546875 269.792969 187.125 C 269.792969 156.703125 253.191406 130.101562 228.589844 115.878906 C 227.496094 115.226562 226.3125 114.875 225.039062 114.828125 C 224.789062 114.8125 224.542969 114.8125 224.292969 114.828125 Z M 187.5 157.199219 C 171.0625 157.199219 157.574219 170.6875 157.574219 187.125 C 157.574219 203.566406 171.0625 217.050781 187.5 217.050781 C 203.9375 217.050781 217.425781 203.566406 217.425781 187.125 C 217.425781 170.6875 203.9375 157.199219 187.5 157.199219 Z M 187.5 172.164062 C 195.851562 172.164062 202.460938 178.773438 202.460938 187.125 C 202.460938 195.476562 195.851562 202.089844 187.5 202.089844 C 179.148438 202.089844 172.539062 195.476562 172.539062 187.125 C 172.539062 178.773438 179.148438 172.164062 187.5 172.164062 Z M 187.5 172.164062 " fill-opacity="1" fill-rule="nonzero"/></g></svg>