<svg xmlns="http://www.w3.org/2000/svg" xmlns:xlink="http://www.w3.org/1999/xlink" width="1920" zoomAndPan="magnify" viewBox="0 0 1440 809.999993" height="1080" preserveAspectRatio="xMidYMid meet" version="1.0"><defs><g/><clipPath id="960404feef"><path d="M 91.152344 75.523438 L 634.902344 75.523438 L 634.902344 289.273438 L 91.152344 289.273438 Z M 91.152344 75.523438 " clip-rule="nonzero"/></clipPath><clipPath id="aac83d7385"><path d="M 871.027344 103.511719 L 1359.277344 103.511719 L 1359.277344 680.261719 L 871.027344 680.261719 Z M 871.027344 103.511719 " clip-rule="nonzero"/></clipPath></defs><g clip-path="url(#960404feef)"><path fill="#2b2b2b" d="M 314.636719 289.050781 C 295.566406 289.050781 289.652344 257.394531 280.058594 196.695312 C 276.535156 174.25 271.453125 142.25 266.296875 128.792969 C 263.113281 138.082031 259.964844 155.632812 257.691406 168.222656 C 250.109375 210.382812 242.945312 250.226562 217.578125 250.226562 C 196.953125 250.226562 191.949219 222.855469 187.097656 196.429688 C 185.164062 185.964844 182.09375 169.207031 178.644531 163.824219 C 175.078125 168.753906 171.402344 184.183594 169.125 193.8125 C 163.402344 217.851562 157.980469 240.523438 139.933594 240.523438 C 122.378906 240.523438 116.539062 225.585938 112.671875 215.652344 C 108.390625 204.65625 106.457031 201.699219 101.109375 201.699219 C 95.765625 201.699219 91.402344 197.339844 91.402344 191.992188 C 91.402344 186.648438 95.765625 182.289062 101.109375 182.289062 C 120.484375 182.289062 126.664062 198.136719 130.757812 208.636719 C 134.816406 219.023438 136.371094 221.109375 139.933594 221.109375 C 143.230469 218.722656 147.78125 199.574219 150.246094 189.300781 C 155.855469 165.71875 161.164062 143.464844 178.757812 143.464844 C 197.105469 143.464844 201.503906 167.464844 206.167969 192.902344 C 208.289062 204.464844 212.726562 228.542969 217.691406 230.855469 C 226.714844 230.816406 235.359375 182.855469 238.582031 164.808594 C 245.105469 128.5625 249.425781 104.640625 266.109375 104.640625 C 284.382812 104.640625 289.726562 133.53125 299.246094 193.660156 C 303.148438 218.265625 309.441406 258.304688 315.738281 268.578125 C 320.589844 262.4375 326.996094 236.425781 330.5625 221.980469 C 338.710938 188.960938 345.15625 162.875 363.167969 162.875 C 380.832031 162.875 386.140625 182.171875 390.386719 197.679688 C 393.003906 207.082031 396.492188 219.820312 401.269531 220.996094 C 408.28125 214.816406 414.691406 176.070312 418.558594 152.714844 C 426.214844 106.234375 431.296875 75.523438 450.519531 75.523438 C 469.855469 75.523438 474.898438 105.4375 482.78125 162.761719 C 486.421875 189.226562 492.449219 233.054688 499.84375 240.371094 C 505.039062 238.359375 511.824219 217.546875 515.121094 207.273438 C 522.210938 185.433594 529.53125 162.875 547.578125 162.875 C 561.871094 162.875 567.707031 179.027344 573.925781 196.125 C 576.730469 203.820312 582.53125 219.898438 586.476562 221.109375 C 591.667969 221.109375 597.699219 210.722656 602.132812 203.140625 C 608.125 192.902344 614.265625 182.289062 625.222656 182.289062 C 630.566406 182.289062 634.929688 186.648438 634.929688 191.992188 C 634.929688 196.960938 631.210938 201.015625 626.4375 201.621094 C 624.503906 203.292969 621.164062 209.015625 618.890625 212.921875 C 612.140625 224.558594 602.816406 240.523438 586.398438 240.523438 C 569.375 240.523438 562.097656 220.429688 555.691406 202.722656 C 553.339844 196.351562 549.625 186.003906 546.816406 182.667969 C 542.457031 185.851562 536.542969 204.199219 533.585938 213.261719 C 526.15625 236.199219 518.496094 259.933594 499.046875 259.933594 C 477.589844 259.933594 471.824219 225.773438 463.523438 165.414062 C 460.375 142.515625 455.828125 109.378906 450.480469 97.742188 C 445.550781 108.242188 440.925781 136.375 437.703125 155.863281 C 429.894531 203.175781 423.714844 240.523438 401.988281 240.523438 C 382.046875 240.523438 376.285156 219.632812 371.695312 202.796875 C 370.257812 197.679688 366.691406 184.75 363.925781 182.589844 C 358.957031 187.972656 353.042969 212.011719 349.402344 226.644531 C 341.140625 260.125 334.011719 289.050781 314.636719 289.050781 " fill-opacity="1" fill-rule="nonzero"/></g><g fill="#2b2b2b" fill-opacity="1"><g transform="translate(93.031732, 610.388441)"><g><path d="M 195.046875 -302.46875 L 195.046875 -241.96875 L 90.921875 -241.96875 L 90.921875 -181.84375 L 190.640625 -181.84375 L 190.640625 -121.359375 L 90.921875 -121.359375 L 90.921875 -60.5 L 195.046875 -60.5 L 195.046875 0 L 22 0 L 22 -302.46875 Z M 195.046875 -302.46875 "/></g></g></g><g fill="#2b2b2b" fill-opacity="1"><g transform="translate(262.042917, 610.388441)"><g><path d="M 122.09375 -140.421875 C 109.863281 -140.421875 99.347656 -135.894531 90.546875 -126.84375 C 81.753906 -117.800781 77.359375 -106.925781 77.359375 -94.21875 C 77.359375 -81.269531 81.753906 -70.269531 90.546875 -61.21875 C 99.347656 -52.175781 109.863281 -47.65625 122.09375 -47.65625 C 127.957031 -47.65625 133.515625 -48.390625 138.765625 -49.859375 C 144.023438 -51.328125 147.875 -52.796875 150.3125 -54.265625 L 153.609375 -56.453125 L 175.609375 -11.359375 C 173.898438 -10.140625 171.515625 -8.613281 168.453125 -6.78125 C 165.398438 -4.945312 158.4375 -2.441406 147.5625 0.734375 C 136.6875 3.910156 125.015625 5.5 112.546875 5.5 C 84.929688 5.5 60.675781 -4.210938 39.78125 -23.640625 C 18.882812 -43.078125 8.4375 -66.359375 8.4375 -93.484375 C 8.4375 -120.859375 18.882812 -144.382812 39.78125 -164.0625 C 60.675781 -183.738281 84.929688 -193.578125 112.546875 -193.578125 C 125.015625 -193.578125 136.503906 -192.109375 147.015625 -189.171875 C 157.523438 -186.242188 164.976562 -183.3125 169.375 -180.375 L 175.609375 -175.984375 L 153.609375 -131.625 C 145.546875 -137.488281 135.039062 -140.421875 122.09375 -140.421875 Z M 122.09375 -140.421875 "/></g></g></g><g fill="#2b2b2b" fill-opacity="1"><g transform="translate(398.424623, 610.388441)"><g><path d="M 22 0 L 22 -315.296875 L 86.890625 -315.296875 L 86.890625 -168.28125 L 87.625 -168.28125 C 104.488281 -185.144531 122.453125 -193.578125 141.515625 -193.578125 C 150.804688 -193.578125 160.035156 -192.351562 169.203125 -189.90625 C 178.367188 -187.46875 187.164062 -183.679688 195.59375 -178.546875 C 204.03125 -173.410156 210.875 -166.132812 216.125 -156.71875 C 221.382812 -147.3125 224.015625 -136.378906 224.015625 -123.921875 L 224.015625 0 L 159.109375 0 L 159.109375 -106.328125 C 159.109375 -116.097656 155.992188 -124.648438 149.765625 -131.984375 C 143.535156 -139.316406 135.410156 -142.984375 125.390625 -142.984375 C 115.609375 -142.984375 106.742188 -139.191406 98.796875 -131.609375 C 90.859375 -124.035156 86.890625 -115.609375 86.890625 -106.328125 L 86.890625 0 Z M 22 0 "/></g></g></g><g fill="#2b2b2b" fill-opacity="1"><g transform="translate(597.132317, 610.388441)"><g><path d="M 39.78125 -22.359375 C 18.882812 -40.941406 8.4375 -64.773438 8.4375 -93.859375 C 8.4375 -122.941406 19.3125 -146.832031 41.0625 -165.53125 C 62.8125 -184.226562 89.695312 -193.578125 121.71875 -193.578125 C 153.25 -193.578125 179.828125 -184.164062 201.453125 -165.34375 C 223.085938 -146.53125 233.90625 -122.703125 233.90625 -93.859375 C 233.90625 -65.015625 223.332031 -41.242188 202.1875 -22.546875 C 181.050781 -3.847656 154.226562 5.5 121.71875 5.5 C 87.988281 5.5 60.675781 -3.785156 39.78125 -22.359375 Z M 90 -125.75 C 81.570312 -117.4375 77.359375 -106.800781 77.359375 -93.84375 C 77.359375 -80.894531 81.390625 -70.328125 89.453125 -62.140625 C 97.523438 -53.953125 108.160156 -49.859375 121.359375 -49.859375 C 134.066406 -49.859375 144.515625 -54.015625 152.703125 -62.328125 C 160.890625 -70.640625 164.984375 -81.148438 164.984375 -93.859375 C 164.984375 -106.804688 160.765625 -117.4375 152.328125 -125.75 C 143.898438 -134.0625 133.578125 -138.21875 121.359375 -138.21875 C 108.890625 -138.21875 98.4375 -134.0625 90 -125.75 Z M 90 -125.75 "/></g></g></g><g clip-path="url(#aac83d7385)"><path fill="#212121" d="M 1070.859375 504.316406 C 1070.859375 494.535156 1062.929688 486.605469 1053.144531 486.605469 C 1043.363281 486.605469 1035.429688 494.535156 1035.429688 504.316406 C 1035.429688 514.09375 1043.363281 522.023438 1053.144531 522.023438 C 1062.929688 522.023438 1070.859375 514.09375 1070.859375 504.316406 Z M 1018.089844 504.316406 C 1018.089844 494.535156 1010.160156 486.605469 1000.375 486.605469 C 990.589844 486.605469 982.660156 494.535156 982.660156 504.316406 C 982.660156 514.09375 990.589844 522.023438 1000.375 522.023438 C 1010.160156 522.023438 1018.089844 514.09375 1018.089844 504.316406 Z M 965.320312 504.316406 C 965.320312 494.535156 957.386719 486.605469 947.605469 486.605469 C 937.820312 486.605469 929.886719 494.535156 929.886719 504.316406 C 929.886719 514.09375 937.820312 522.023438 947.605469 522.023438 C 957.386719 522.023438 965.320312 514.09375 965.320312 504.316406 Z M 1000.375 381.777344 C 1036.597656 381.777344 1065.054688 392.332031 1082.664062 412.300781 C 1092.054688 422.953125 1088.34375 434.015625 1082.3125 440.246094 C 1074.09375 448.742188 1059.007812 451.703125 1043.816406 439.179688 C 1024.652344 423.386719 1009.328125 403.808594 998.460938 381.789062 C 999.097656 381.777344 999.738281 381.777344 1000.375 381.777344 Z M 1076.832031 679.5625 C 1079.035156 678.558594 1080.492188 676.40625 1080.605469 673.988281 L 1084.171875 596.671875 C 1103.898438 579.898438 1117.96875 557.996094 1124.9375 533.144531 C 1125.902344 529.714844 1123.898438 526.152344 1120.46875 525.191406 C 1117.046875 524.230469 1113.480469 526.230469 1112.515625 529.660156 C 1106.007812 552.867188 1092.617188 573.222656 1073.789062 588.527344 C 1072.367188 589.683594 1071.503906 591.402344 1071.414062 593.234375 L 1068.296875 660.828125 L 1011.371094 615.773438 C 1010.132812 614.796875 1008.578125 614.304688 1007.007812 614.394531 C 1004.601562 614.527344 1002.433594 614.59375 1000.375 614.59375 C 936.164062 614.59375 883.925781 562.375 883.925781 498.183594 C 883.925781 439.320312 927.855469 390.519531 984.664062 382.828125 C 996.417969 408.359375 1013.671875 431.046875 1035.609375 449.132812 C 1057.035156 466.789062 1079.640625 461.554688 1091.582031 449.214844 C 1104.160156 436.21875 1104.472656 417.535156 1092.339844 403.777344 C 1078.304688 387.855469 1050.953125 368.878906 1000.375 368.878906 C 997.832031 368.878906 995.308594 368.953125 992.800781 369.101562 C 984.179688 347.570312 979.613281 324.109375 979.613281 299.847656 C 979.613281 198.761719 1061.878906 116.523438 1163 116.523438 C 1264.117188 116.523438 1346.382812 198.761719 1346.382812 299.847656 C 1346.382812 355.246094 1321.679688 407.101562 1278.613281 442.117188 C 1277.1875 443.273438 1276.328125 444.988281 1276.238281 446.824219 L 1271.105469 558.078125 L 1177.800781 484.234375 C 1175.011719 482.023438 1170.953125 482.496094 1168.742188 485.285156 C 1166.53125 488.082031 1167 492.136719 1169.796875 494.347656 L 1272.960938 575.992188 C 1274.863281 577.496094 1277.441406 577.8125 1279.640625 576.808594 C 1281.84375 575.804688 1283.296875 573.65625 1283.410156 571.242188 L 1289 450.269531 C 1333.707031 412.835938 1359.285156 358.175781 1359.285156 299.847656 C 1359.285156 191.652344 1271.230469 103.625 1163 103.625 C 1054.765625 103.625 966.714844 191.652344 966.714844 299.847656 C 966.714844 324.53125 971.140625 348.449219 979.519531 370.5625 C 918.074219 380.554688 871.023438 433.980469 871.023438 498.183594 C 871.023438 569.484375 929.050781 627.488281 1000.375 627.488281 C 1001.941406 627.488281 1003.554688 627.453125 1005.261719 627.390625 L 1070.15625 678.75 C 1071.316406 679.667969 1072.734375 680.144531 1074.160156 680.144531 C 1075.066406 680.144531 1075.980469 679.949219 1076.832031 679.5625 Z M 1245.984375 293.378906 C 1245.984375 282.3125 1237.007812 273.335938 1225.9375 273.335938 C 1214.871094 273.335938 1205.894531 282.3125 1205.894531 293.378906 C 1205.894531 304.449219 1214.871094 313.414062 1225.9375 313.414062 C 1237.007812 313.414062 1245.984375 304.449219 1245.984375 293.378906 Z M 1186.269531 293.378906 C 1186.269531 282.3125 1177.296875 273.335938 1166.222656 273.335938 C 1155.152344 273.335938 1146.175781 282.3125 1146.175781 293.378906 C 1146.175781 304.449219 1155.152344 313.414062 1166.222656 313.414062 C 1177.296875 313.414062 1186.269531 304.449219 1186.269531 293.378906 Z M 1106.507812 313.414062 C 1095.433594 313.414062 1086.457031 304.449219 1086.457031 293.378906 C 1086.457031 282.3125 1095.433594 273.335938 1106.507812 273.335938 C 1117.574219 273.335938 1126.550781 282.3125 1126.550781 293.378906 C 1126.550781 304.449219 1117.574219 313.414062 1106.507812 313.414062 " fill-opacity="1" fill-rule="nonzero"/></g></svg>