<svg xmlns="http://www.w3.org/2000/svg" xmlns:xlink="http://www.w3.org/1999/xlink" width="500" zoomAndPan="magnify" viewBox="0 0 375 374.999991" height="500" preserveAspectRatio="xMidYMid meet" version="1.0"><defs><g/><clipPath id="0cc4e20e19"><path d="M 23 116 L 169 116 L 169 261.84375 L 23 261.84375 Z M 23 116 " clip-rule="nonzero"/></clipPath><clipPath id="581bd13266"><path d="M 20 113.34375 L 165 113.34375 L 165 259 L 20 259 Z M 20 113.34375 " clip-rule="nonzero"/></clipPath></defs><g clip-path="url(#0cc4e20e19)"><path fill="#000000" d="M 115.875 261.824219 C 112.957031 261.824219 110.128906 260.949219 107.695312 259.296875 L 75.855469 237.703125 L 59.464844 235.058594 C 54.699219 234.289062 50.980469 230.570312 50.214844 225.792969 L 47.574219 209.386719 L 26 177.503906 C 23.40625 173.671875 22.773438 168.953125 24.273438 164.566406 C 25.773438 160.179688 29.15625 156.84375 33.554688 155.402344 L 149.136719 117.570312 C 150.601562 117.085938 152.136719 116.839844 153.683594 116.839844 C 157.574219 116.839844 161.234375 118.363281 163.996094 121.125 C 167.910156 125.042969 169.273438 130.75 167.550781 136.011719 L 129.769531 251.738281 C 128.332031 256.144531 124.996094 259.53125 120.617188 261.03125 C 119.078125 261.554688 117.484375 261.824219 115.875 261.824219 Z M 115.875 261.824219 " fill-opacity="0.35" fill-rule="nonzero"/></g><g clip-path="url(#581bd13266)"><path fill="#f2f2f2" d="M 112.4375 258.382812 C 109.523438 258.382812 106.691406 257.507812 104.257812 255.855469 L 72.417969 234.261719 L 56.027344 231.617188 C 51.265625 230.847656 47.546875 227.128906 46.777344 222.355469 L 44.136719 205.945312 L 22.566406 174.0625 C 19.96875 170.230469 19.335938 165.511719 20.835938 161.125 C 22.335938 156.742188 25.71875 153.402344 30.117188 151.960938 L 145.699219 114.128906 C 147.164062 113.644531 148.699219 113.402344 150.25 113.402344 C 154.136719 113.402344 157.800781 114.921875 160.558594 117.683594 C 164.476562 121.601562 165.835938 127.308594 164.117188 132.574219 L 126.332031 248.296875 C 124.894531 252.703125 121.558594 256.089844 117.179688 257.589844 C 115.644531 258.117188 114.050781 258.382812 112.4375 258.382812 Z M 112.4375 258.382812 " fill-opacity="1" fill-rule="nonzero"/></g><path fill="#d9eeff" d="M 149.167969 124.757812 L 33.589844 162.589844 C 31.417969 163.300781 30.53125 165.898438 31.8125 167.792969 L 54.765625 201.722656 L 57.804688 220.578125 L 76.636719 223.621094 L 110.523438 246.605469 C 112.417969 247.886719 115.007812 247 115.71875 244.824219 L 153.507812 129.097656 C 154.378906 126.417969 151.84375 123.882812 149.167969 124.757812 Z M 149.167969 124.757812 " fill-opacity="1" fill-rule="nonzero"/><path fill="#70bfff" d="M 54.765625 201.722656 L 126.902344 151.6875 L 76.636719 223.617188 L 57.804688 220.578125 Z M 54.765625 201.722656 " fill-opacity="1" fill-rule="nonzero"/><path fill="#40396e" d="M 112.4375 249.78125 C 111.257812 249.78125 110.09375 249.425781 109.078125 248.738281 L 75.664062 226.074219 L 57.394531 223.125 C 56.296875 222.945312 55.4375 222.085938 55.261719 220.988281 L 52.316406 202.695312 L 29.679688 169.238281 C 28.609375 167.660156 28.351562 165.71875 28.964844 163.910156 C 29.582031 162.105469 30.976562 160.730469 32.789062 160.136719 L 148.367188 122.304688 C 150.53125 121.59375 152.878906 122.15625 154.492188 123.769531 C 156.101562 125.382812 156.664062 127.734375 155.953125 129.902344 L 118.167969 245.625 C 117.574219 247.4375 116.203125 248.832031 114.398438 249.453125 C 113.757812 249.671875 113.09375 249.78125 112.4375 249.78125 Z M 60.054688 218.324219 L 77.050781 221.070312 C 77.421875 221.128906 77.773438 221.269531 78.082031 221.480469 L 111.972656 244.464844 C 112.28125 244.675781 112.582031 244.617188 112.730469 244.566406 C 112.882812 244.515625 113.152344 244.375 113.269531 244.023438 L 151.054688 128.296875 C 151.195312 127.859375 150.984375 127.558594 150.847656 127.417969 C 150.707031 127.28125 150.40625 127.066406 149.96875 127.210938 L 34.390625 165.042969 C 34.035156 165.160156 33.894531 165.433594 33.84375 165.582031 C 33.792969 165.734375 33.734375 166.035156 33.945312 166.34375 L 56.902344 200.273438 C 57.113281 200.585938 57.253906 200.9375 57.3125 201.308594 Z M 60.054688 218.324219 " fill-opacity="1" fill-rule="nonzero"/><g fill="#40396e" fill-opacity="1"><g transform="translate(169.354841, 237.258359)"><g><path d="M 38.230469 -5.921875 C 38.230469 -7.808594 37.523438 -9.457031 36.34375 -10.632812 C 35.132812 -11.8125 33.484375 -12.519531 31.632812 -12.519531 L 17.902344 -12.519531 L 17.902344 -15.34375 L 27.425781 -15.34375 C 29.949219 -15.34375 31.9375 -16.691406 32.980469 -18.980469 C 33.886719 -20.964844 33.484375 -23.050781 32.40625 -24.667969 C 31.296875 -26.28125 29.445312 -27.394531 27.425781 -27.394531 L 17.902344 -27.394531 L 17.902344 -30.960938 L 31.632812 -30.960938 C 34.492188 -30.960938 36.410156 -32.339844 37.355469 -34.191406 C 38.261719 -36.042969 38.230469 -38.363281 37.285156 -40.214844 C 36.3125 -42.066406 34.425781 -43.445312 31.632812 -43.445312 L 8.347656 -43.445312 C 6.628906 -43.445312 5.621094 -43.175781 5.015625 -42.703125 C 4.410156 -42.234375 4.171875 -41.527344 4.171875 -40.71875 C 4.171875 -40.046875 4.273438 -39.339844 4.441406 -38.597656 C 4.609375 -37.824219 4.746094 -37.085938 4.777344 -36.378906 L 4.777344 -5.921875 C 4.777344 -4.039062 5.484375 -2.390625 6.664062 -1.210938 C 7.839844 -0.0351562 9.457031 0.671875 11.339844 0.671875 L 31.632812 0.671875 C 33.484375 0.671875 35.132812 -0.0351562 36.34375 -1.246094 C 37.523438 -2.421875 38.230469 -4.070312 38.230469 -5.921875 Z M 38.230469 -5.921875 "/></g></g></g><g fill="#40396e" fill-opacity="1"><g transform="translate(209.670168, 237.258359)"><g><path d="M 30.722656 -27.226562 C 32.472656 -25.878906 34.15625 -25.441406 35.671875 -25.574219 C 37.1875 -25.710938 38.53125 -26.484375 39.507812 -27.460938 C 40.855469 -28.804688 41.492188 -30.589844 41.390625 -32.035156 C 41.292969 -33.820312 40.683594 -35.300781 39.507812 -36.648438 C 37.386719 -39.035156 35.265625 -40.753906 32.84375 -41.863281 C 30.386719 -42.941406 27.5625 -43.445312 24.164062 -43.445312 C 18.070312 -43.445312 12.550781 -40.988281 8.546875 -36.984375 C 4.542969 -32.945312 2.085938 -27.460938 2.085938 -21.402344 C 2.085938 -15.3125 4.542969 -9.792969 8.546875 -5.789062 C 12.550781 -1.785156 18.070312 0.671875 24.164062 0.671875 C 27.628906 0.671875 30.589844 0.132812 33.179688 -1.007812 C 35.738281 -2.152344 37.992188 -3.871094 40.046875 -6.394531 C 41.390625 -7.738281 41.929688 -9.320312 41.929688 -11.039062 C 41.929688 -12.820312 41.292969 -14.371094 40.046875 -15.613281 C 39.507812 -16.152344 38.902344 -16.558594 38.230469 -16.824219 C 36.882812 -17.363281 35.46875 -17.433594 34.089844 -17.09375 C 32.710938 -16.757812 31.363281 -15.949219 30.285156 -15.007812 C 29.714844 -14.503906 29.175781 -14.066406 28.605469 -13.664062 C 27.460938 -12.820312 26.179688 -12.183594 24.164062 -12.183594 C 21.738281 -12.183594 19.519531 -13.257812 17.902344 -14.90625 C 16.289062 -16.558594 15.277344 -18.84375 15.277344 -21.269531 C 15.277344 -23.691406 16.253906 -26.011719 17.871094 -27.695312 C 19.484375 -29.378906 21.707031 -30.421875 24.164062 -30.421875 C 25.070312 -30.421875 25.878906 -30.320312 26.550781 -30.085938 C 27.863281 -29.648438 28.804688 -28.972656 29.582031 -28.234375 C 29.949219 -27.863281 30.355469 -27.527344 30.722656 -27.226562 Z M 30.722656 -27.226562 "/></g></g></g><g fill="#40396e" fill-opacity="1"><g transform="translate(253.720886, 237.258359)"><g><path d="M 43.648438 -36.847656 C 43.648438 -39.675781 42.46875 -41.324219 40.652344 -42.265625 C 38.835938 -43.210938 36.445312 -43.445312 34.054688 -43.445312 C 32.339844 -43.445312 31.363281 -43.175781 30.722656 -42.703125 C 30.085938 -42.234375 29.917969 -41.527344 29.917969 -40.71875 C 29.917969 -40.046875 30.019531 -39.339844 30.1875 -38.597656 C 30.355469 -37.824219 30.457031 -37.085938 30.488281 -36.378906 L 30.488281 -27.191406 L 17.902344 -27.191406 L 17.902344 -36.847656 C 17.902344 -39.640625 16.726562 -41.292969 14.976562 -42.234375 C 13.191406 -43.175781 10.800781 -43.445312 8.347656 -43.445312 C 6.628906 -43.445312 5.621094 -43.175781 5.015625 -42.703125 C 4.410156 -42.234375 4.171875 -41.527344 4.171875 -40.71875 C 4.171875 -40.046875 4.273438 -39.339844 4.441406 -38.597656 C 4.609375 -37.824219 4.746094 -37.085938 4.777344 -36.378906 L 4.777344 -5.921875 C 4.777344 -4.070312 5.484375 -2.457031 6.664062 -1.277344 C 7.839844 -0.0664062 9.457031 0.671875 11.339844 0.671875 C 13.226562 0.671875 14.839844 -0.0664062 16.019531 -1.277344 C 17.195312 -2.457031 17.902344 -4.070312 17.902344 -5.921875 L 17.902344 -14.03125 L 30.488281 -14.03125 L 30.488281 -5.921875 C 30.488281 -4.070312 31.195312 -2.457031 32.375 -1.277344 C 33.550781 -0.0664062 35.199219 0.671875 37.050781 0.671875 C 38.9375 0.671875 40.550781 -0.0664062 41.761719 -1.277344 C 42.941406 -2.457031 43.648438 -4.070312 43.648438 -5.921875 Z M 43.648438 -36.847656 "/></g></g></g><g fill="#40396e" fill-opacity="1"><g transform="translate(301.103181, 237.258359)"><g><path d="M 2.085938 -21.402344 C 2.085938 -15.3125 4.542969 -9.792969 8.546875 -5.789062 C 12.550781 -1.785156 18.070312 0.671875 24.164062 0.671875 C 30.21875 0.671875 35.703125 -1.785156 39.742188 -5.789062 C 43.746094 -9.792969 46.203125 -15.3125 46.203125 -21.402344 C 46.203125 -25.441406 45.09375 -29.242188 43.175781 -32.507812 C 41.257812 -35.773438 38.53125 -38.5 35.265625 -40.417969 C 32.003906 -42.335938 28.199219 -43.445312 24.164062 -43.445312 C 18.070312 -43.445312 12.550781 -40.988281 8.546875 -36.984375 C 4.542969 -32.945312 2.085938 -27.460938 2.085938 -21.402344 Z M 15.277344 -21.269531 C 15.277344 -23.691406 16.253906 -26.011719 17.871094 -27.695312 C 19.484375 -29.378906 21.707031 -30.421875 24.164062 -30.421875 C 26.585938 -30.421875 28.804688 -29.34375 30.421875 -27.730469 C 32.035156 -26.082031 33.046875 -23.824219 33.046875 -21.402344 C 33.046875 -18.945312 32.035156 -16.65625 30.421875 -14.976562 C 28.804688 -13.292969 26.585938 -12.183594 24.164062 -12.183594 C 21.707031 -12.183594 19.484375 -13.257812 17.871094 -14.941406 C 16.253906 -16.625 15.277344 -18.878906 15.277344 -21.269531 Z M 15.277344 -21.269531 "/></g></g></g><g fill="#40396e" fill-opacity="1"><g transform="translate(172.776365, 259.193978)"><g><path d="M 7.21875 -3.921875 C 7.21875 -2.648438 6.867188 -1.675781 6.171875 -1 C 5.484375 -0.332031 4.488281 0 3.1875 0 L 1.0625 0 L 1.0625 -7.703125 L 3.421875 -7.703125 C 4.617188 -7.703125 5.550781 -7.367188 6.21875 -6.703125 C 6.882812 -6.046875 7.21875 -5.117188 7.21875 -3.921875 Z M 6.265625 -3.890625 C 6.265625 -4.898438 6.007812 -5.660156 5.5 -6.171875 C 5 -6.679688 4.253906 -6.9375 3.265625 -6.9375 L 1.953125 -6.9375 L 1.953125 -0.78125 L 3.046875 -0.78125 C 4.117188 -0.78125 4.921875 -1.039062 5.453125 -1.5625 C 5.992188 -2.082031 6.265625 -2.859375 6.265625 -3.890625 Z M 6.265625 -3.890625 "/></g></g></g><g fill="#40396e" fill-opacity="1"><g transform="translate(180.642865, 259.193978)"><g><path d="M 3.4375 0 L 2.53125 0 L 2.53125 -6.90625 L 0.09375 -6.90625 L 0.09375 -7.703125 L 5.875 -7.703125 L 5.875 -6.90625 L 3.4375 -6.90625 Z M 3.4375 0 "/></g></g></g><g fill="#40396e" fill-opacity="1"><g transform="translate(186.612553, 259.193978)"><g><path d="M 4.359375 -7.015625 C 3.515625 -7.015625 2.847656 -6.734375 2.359375 -6.171875 C 1.867188 -5.609375 1.625 -4.835938 1.625 -3.859375 C 1.625 -2.847656 1.859375 -2.066406 2.328125 -1.515625 C 2.796875 -0.960938 3.46875 -0.6875 4.34375 -0.6875 C 4.882812 -0.6875 5.5 -0.785156 6.1875 -0.984375 L 6.1875 -0.1875 C 5.65625 0.0078125 5 0.109375 4.21875 0.109375 C 3.082031 0.109375 2.203125 -0.234375 1.578125 -0.921875 C 0.960938 -1.617188 0.65625 -2.597656 0.65625 -3.859375 C 0.65625 -4.660156 0.800781 -5.359375 1.09375 -5.953125 C 1.394531 -6.546875 1.828125 -7.003906 2.390625 -7.328125 C 2.953125 -7.648438 3.613281 -7.8125 4.375 -7.8125 C 5.175781 -7.8125 5.878906 -7.664062 6.484375 -7.375 L 6.109375 -6.609375 C 5.523438 -6.878906 4.941406 -7.015625 4.359375 -7.015625 Z M 4.359375 -7.015625 "/></g></g></g><g fill="#40396e" fill-opacity="1"><g transform="translate(193.419996, 259.193978)"><g><path d="M 4.484375 0 L 4.3125 -0.828125 L 4.265625 -0.828125 C 3.972656 -0.460938 3.679688 -0.210938 3.390625 -0.078125 C 3.109375 0.046875 2.753906 0.109375 2.328125 0.109375 C 1.753906 0.109375 1.304688 -0.0351562 0.984375 -0.328125 C 0.660156 -0.628906 0.5 -1.050781 0.5 -1.59375 C 0.5 -2.757812 1.429688 -3.375 3.296875 -3.4375 L 4.28125 -3.46875 L 4.28125 -3.828125 C 4.28125 -4.273438 4.179688 -4.609375 3.984375 -4.828125 C 3.785156 -5.046875 3.472656 -5.15625 3.046875 -5.15625 C 2.566406 -5.15625 2.019531 -5.003906 1.40625 -4.703125 L 1.140625 -5.375 C 1.429688 -5.53125 1.742188 -5.648438 2.078125 -5.734375 C 2.421875 -5.828125 2.757812 -5.875 3.09375 -5.875 C 3.789062 -5.875 4.300781 -5.71875 4.625 -5.40625 C 4.957031 -5.101562 5.125 -4.613281 5.125 -3.9375 L 5.125 0 Z M 2.5 -0.609375 C 3.050781 -0.609375 3.476562 -0.757812 3.78125 -1.0625 C 4.09375 -1.363281 4.25 -1.78125 4.25 -2.3125 L 4.25 -2.84375 L 3.375 -2.796875 C 2.675781 -2.773438 2.171875 -2.664062 1.859375 -2.46875 C 1.554688 -2.28125 1.40625 -1.988281 1.40625 -1.59375 C 1.40625 -1.269531 1.5 -1.023438 1.6875 -0.859375 C 1.882812 -0.691406 2.15625 -0.609375 2.5 -0.609375 Z M 2.5 -0.609375 "/></g></g></g><g fill="#40396e" fill-opacity="1"><g transform="translate(199.421299, 259.193978)"><g><path d="M 3.5625 -5.890625 C 3.820312 -5.890625 4.050781 -5.863281 4.25 -5.8125 L 4.140625 -5.015625 C 3.898438 -5.066406 3.6875 -5.09375 3.5 -5.09375 C 3.03125 -5.09375 2.628906 -4.898438 2.296875 -4.515625 C 1.960938 -4.140625 1.796875 -3.664062 1.796875 -3.09375 L 1.796875 0 L 0.921875 0 L 0.921875 -5.78125 L 1.65625 -5.78125 L 1.75 -4.703125 L 1.796875 -4.703125 C 2.003906 -5.078125 2.257812 -5.367188 2.5625 -5.578125 C 2.863281 -5.785156 3.195312 -5.890625 3.5625 -5.890625 Z M 3.5625 -5.890625 "/></g></g></g><g fill="#40396e" fill-opacity="1"><g transform="translate(203.826115, 259.193978)"><g><path d="M 1.796875 0 L 0.921875 0 L 0.921875 -8.203125 L 1.796875 -8.203125 Z M 1.796875 0 "/></g></g></g><g fill="#40396e" fill-opacity="1"><g transform="translate(206.555415, 259.193978)"><g><path d="M 5.921875 -2.890625 C 5.921875 -1.953125 5.679688 -1.21875 5.203125 -0.6875 C 4.722656 -0.15625 4.066406 0.109375 3.234375 0.109375 C 2.722656 0.109375 2.265625 -0.0078125 1.859375 -0.25 C 1.460938 -0.5 1.15625 -0.847656 0.9375 -1.296875 C 0.71875 -1.753906 0.609375 -2.285156 0.609375 -2.890625 C 0.609375 -3.835938 0.84375 -4.570312 1.3125 -5.09375 C 1.78125 -5.625 2.4375 -5.890625 3.28125 -5.890625 C 4.082031 -5.890625 4.722656 -5.617188 5.203125 -5.078125 C 5.679688 -4.535156 5.921875 -3.804688 5.921875 -2.890625 Z M 1.515625 -2.890625 C 1.515625 -2.148438 1.660156 -1.585938 1.953125 -1.203125 C 2.253906 -0.816406 2.691406 -0.625 3.265625 -0.625 C 3.835938 -0.625 4.269531 -0.816406 4.5625 -1.203125 C 4.863281 -1.585938 5.015625 -2.148438 5.015625 -2.890625 C 5.015625 -3.628906 4.863281 -4.1875 4.5625 -4.5625 C 4.269531 -4.945312 3.832031 -5.140625 3.25 -5.140625 C 2.675781 -5.140625 2.242188 -4.953125 1.953125 -4.578125 C 1.660156 -4.203125 1.515625 -3.640625 1.515625 -2.890625 Z M 1.515625 -2.890625 "/></g></g></g><g fill="#40396e" fill-opacity="1"><g transform="translate(213.073071, 259.193978)"><g><path d="M 2.3125 -2.953125 L 0.3125 -5.78125 L 1.3125 -5.78125 L 2.828125 -3.5625 L 4.34375 -5.78125 L 5.328125 -5.78125 L 3.328125 -2.953125 L 5.4375 0 L 4.453125 0 L 2.828125 -2.34375 L 1.203125 0 L 0.203125 0 Z M 2.3125 -2.953125 "/></g></g></g><g fill="#40396e" fill-opacity="1"><g transform="translate(218.726625, 259.193978)"><g><path d="M 1.5 0 L 4.703125 -6.90625 L 0.5 -6.90625 L 0.5 -7.703125 L 5.625 -7.703125 L 5.625 -7 L 2.46875 0 Z M 1.5 0 "/></g></g></g><g fill="#40396e" fill-opacity="1"><g transform="translate(224.896532, 259.193978)"><g><path d="M 1.5 0 L 4.703125 -6.90625 L 0.5 -6.90625 L 0.5 -7.703125 L 5.625 -7.703125 L 5.625 -7 L 2.46875 0 Z M 1.5 0 "/></g></g></g></svg>