<svg xmlns="http://www.w3.org/2000/svg" xmlns:xlink="http://www.w3.org/1999/xlink" width="500" zoomAndPan="magnify" viewBox="0 0 375 374.999991" height="500" preserveAspectRatio="xMidYMid meet" version="1.0"><path fill="#000000" d="M 320.699219 1.542969 C 311.417969 1.65625 302.136719 5.234375 295.207031 12.390625 L 161.691406 148.140625 L 141.789062 231.78125 L 225.429688 211.875 L 228.335938 209.191406 L 361.289062 78.363281 C 375.492188 64.496094 375.714844 41.128906 361.515625 27.039062 L 346.53125 11.941406 C 339.484375 4.898438 330.09375 1.429688 320.699219 1.542969 Z M 320.921875 29.945312 C 322.824219 29.945312 324.726562 30.726562 326.292969 32.292969 L 341.273438 47.277344 C 344.40625 50.296875 344.40625 54.882812 341.273438 58.011719 L 211.117188 185.933594 L 180.253906 193.316406 L 187.632812 162.453125 L 315.667969 32.292969 C 317.121094 30.726562 319.023438 29.945312 320.921875 29.945312 Z M 57.25 30.058594 C 25.605469 30.058594 0 55.664062 0 87.308594 L 0 316.316406 C 0 347.960938 25.605469 373.570312 57.25 373.570312 L 286.257812 373.570312 C 317.90625 373.570312 343.511719 347.960938 343.511719 316.316406 L 343.511719 136.0625 L 314.886719 164.242188 L 314.886719 316.316406 C 314.886719 332.082031 302.027344 344.941406 286.257812 344.941406 L 57.25 344.941406 C 41.484375 344.941406 28.625 332.082031 28.625 316.316406 L 28.625 87.308594 C 28.625 71.542969 41.484375 58.683594 57.25 58.683594 L 209.550781 58.683594 L 237.730469 30.058594 Z M 57.25 30.058594 " fill-opacity="1" fill-rule="nonzero"/></svg>