<svg xmlns="http://www.w3.org/2000/svg" xmlns:xlink="http://www.w3.org/1999/xlink" width="500" zoomAndPan="magnify" viewBox="0 0 375 374.999991" height="500" preserveAspectRatio="xMidYMid meet" version="1.0"><path fill="#000000" d="M 258.4375 98.820312 C 258.4375 100.414062 258.398438 102.011719 258.320312 103.605469 C 258.242188 105.195312 258.125 106.789062 257.96875 108.375 C 257.8125 109.964844 257.617188 111.546875 257.382812 113.125 C 257.148438 114.703125 256.875 116.273438 256.566406 117.839844 C 256.253906 119.402344 255.90625 120.960938 255.519531 122.507812 C 255.128906 124.054688 254.707031 125.59375 254.242188 127.117188 C 253.78125 128.644531 253.28125 130.160156 252.742188 131.660156 C 252.203125 133.164062 251.632812 134.652344 251.019531 136.125 C 250.410156 137.601562 249.765625 139.058594 249.082031 140.5 C 248.402344 141.941406 247.683594 143.367188 246.933594 144.773438 C 246.179688 146.179688 245.394531 147.570312 244.574219 148.9375 C 243.757812 150.304688 242.902344 151.652344 242.015625 152.980469 C 241.132812 154.304688 240.214844 155.609375 239.265625 156.890625 C 238.3125 158.171875 237.332031 159.429688 236.320312 160.664062 C 235.308594 161.898438 234.269531 163.105469 233.199219 164.285156 C 232.128906 165.46875 231.027344 166.625 229.898438 167.753906 C 228.773438 168.878906 227.617188 169.980469 226.4375 171.050781 C 225.253906 172.125 224.046875 173.164062 222.816406 174.175781 C 221.582031 175.1875 220.328125 176.171875 219.046875 177.121094 C 217.765625 178.070312 216.460938 178.988281 215.136719 179.875 C 213.808594 180.761719 212.464844 181.617188 211.09375 182.4375 C 209.726562 183.257812 208.339844 184.042969 206.933594 184.792969 C 205.527344 185.546875 204.105469 186.261719 202.664062 186.945312 C 201.222656 187.628906 199.765625 188.273438 198.289062 188.882812 C 196.816406 189.496094 195.332031 190.070312 193.828125 190.605469 C 192.328125 191.144531 190.8125 191.644531 189.289062 192.105469 C 187.761719 192.570312 186.226562 192.996094 184.679688 193.382812 C 183.132812 193.769531 181.578125 194.121094 180.011719 194.433594 C 178.449219 194.742188 176.878906 195.015625 175.300781 195.25 C 173.722656 195.484375 172.140625 195.679688 170.554688 195.835938 C 168.96875 195.992188 167.378906 196.109375 165.785156 196.1875 C 164.191406 196.265625 162.601562 196.304688 161.003906 196.304688 C 159.410156 196.304688 157.816406 196.265625 156.222656 196.1875 C 154.632812 196.109375 153.042969 195.992188 151.457031 195.835938 C 149.867188 195.679688 148.285156 195.484375 146.707031 195.25 C 145.132812 195.015625 143.5625 194.742188 141.996094 194.433594 C 140.433594 194.121094 138.878906 193.769531 137.332031 193.382812 C 135.785156 192.996094 134.246094 192.570312 132.722656 192.105469 C 131.195312 191.644531 129.683594 191.144531 128.179688 190.605469 C 126.679688 190.070312 125.191406 189.496094 123.71875 188.882812 C 122.246094 188.273438 120.789062 187.628906 119.347656 186.945312 C 117.90625 186.261719 116.480469 185.546875 115.074219 184.792969 C 113.667969 184.042969 112.28125 183.257812 110.914062 182.4375 C 109.546875 181.617188 108.199219 180.761719 106.875 179.875 C 105.546875 178.988281 104.246094 178.070312 102.964844 177.121094 C 101.683594 176.171875 100.425781 175.1875 99.195312 174.175781 C 97.960938 173.164062 96.753906 172.125 95.574219 171.050781 C 94.390625 169.980469 93.238281 168.878906 92.109375 167.753906 C 90.980469 166.625 89.882812 165.46875 88.8125 164.285156 C 87.742188 163.105469 86.699219 161.898438 85.6875 160.664062 C 84.675781 159.429688 83.695312 158.171875 82.746094 156.890625 C 81.796875 155.609375 80.878906 154.304688 79.992188 152.980469 C 79.105469 151.652344 78.253906 150.304688 77.433594 148.9375 C 76.613281 147.570312 75.828125 146.179688 75.078125 144.773438 C 74.324219 143.367188 73.609375 141.941406 72.925781 140.5 C 72.246094 139.058594 71.597656 137.601562 70.988281 136.125 C 70.378906 134.652344 69.804688 133.164062 69.269531 131.660156 C 68.730469 130.160156 68.230469 128.644531 67.769531 127.117188 C 67.304688 125.59375 66.878906 124.054688 66.492188 122.507812 C 66.105469 120.960938 65.753906 119.402344 65.445312 117.839844 C 65.132812 116.273438 64.859375 114.703125 64.628906 113.125 C 64.394531 111.546875 64.199219 109.964844 64.042969 108.375 C 63.886719 106.789062 63.769531 105.195312 63.691406 103.605469 C 63.613281 102.011719 63.574219 100.414062 63.574219 98.820312 C 63.574219 97.226562 63.613281 95.628906 63.691406 94.035156 C 63.769531 92.445312 63.886719 90.851562 64.042969 89.265625 C 64.199219 87.675781 64.394531 86.09375 64.628906 84.515625 C 64.859375 82.9375 65.132812 81.367188 65.445312 79.800781 C 65.753906 78.238281 66.105469 76.679688 66.492188 75.132812 C 66.878906 73.585938 67.304688 72.046875 67.769531 70.523438 C 68.230469 68.996094 68.730469 67.480469 69.269531 65.980469 C 69.804688 64.476562 70.378906 62.988281 70.988281 61.515625 C 71.597656 60.039062 72.246094 58.582031 72.925781 57.140625 C 73.609375 55.699219 74.324219 54.273438 75.078125 52.867188 C 75.828125 51.460938 76.613281 50.070312 77.433594 48.703125 C 78.253906 47.335938 79.105469 45.988281 79.992188 44.660156 C 80.878906 43.335938 81.796875 42.03125 82.746094 40.75 C 83.695312 39.46875 84.675781 38.210938 85.6875 36.976562 C 86.699219 35.742188 87.742188 34.535156 88.8125 33.351562 C 89.882812 32.171875 90.980469 31.015625 92.109375 29.886719 C 93.238281 28.761719 94.390625 27.660156 95.574219 26.589844 C 96.753906 25.515625 97.960938 24.476562 99.195312 23.464844 C 100.425781 22.453125 101.683594 21.46875 102.964844 20.519531 C 104.246094 19.570312 105.546875 18.652344 106.875 17.765625 C 108.199219 16.878906 109.546875 16.023438 110.914062 15.203125 C 112.28125 14.382812 113.667969 13.597656 115.074219 12.847656 C 116.480469 12.09375 117.90625 11.378906 119.347656 10.695312 C 120.789062 10.011719 122.246094 9.367188 123.71875 8.757812 C 125.191406 8.144531 126.679688 7.570312 128.179688 7.035156 C 129.683594 6.496094 131.195312 5.996094 132.722656 5.53125 C 134.246094 5.070312 135.785156 4.644531 137.332031 4.257812 C 138.878906 3.871094 140.433594 3.519531 141.996094 3.207031 C 143.5625 2.898438 145.132812 2.625 146.707031 2.390625 C 148.285156 2.15625 149.867188 1.960938 151.457031 1.804688 C 153.042969 1.648438 154.632812 1.53125 156.222656 1.453125 C 157.816406 1.375 159.410156 1.335938 161.003906 1.335938 C 162.601562 1.335938 164.191406 1.375 165.785156 1.453125 C 167.378906 1.53125 168.96875 1.648438 170.554688 1.804688 C 172.140625 1.960938 173.722656 2.15625 175.300781 2.390625 C 176.878906 2.625 178.449219 2.898438 180.011719 3.207031 C 181.578125 3.519531 183.132812 3.871094 184.679688 4.257812 C 186.226562 4.644531 187.761719 5.070312 189.289062 5.53125 C 190.8125 5.996094 192.328125 6.496094 193.828125 7.035156 C 195.332031 7.570312 196.816406 8.144531 198.289062 8.757812 C 199.765625 9.367188 201.222656 10.011719 202.664062 10.695312 C 204.105469 11.378906 205.527344 12.09375 206.933594 12.847656 C 208.339844 13.597656 209.726562 14.382812 211.09375 15.203125 C 212.464844 16.023438 213.808594 16.878906 215.136719 17.765625 C 216.460938 18.652344 217.765625 19.570312 219.046875 20.519531 C 220.328125 21.46875 221.582031 22.453125 222.816406 23.464844 C 224.046875 24.476562 225.253906 25.515625 226.4375 26.589844 C 227.617188 27.660156 228.773438 28.761719 229.898438 29.886719 C 231.027344 31.015625 232.128906 32.171875 233.199219 33.351562 C 234.269531 34.535156 235.308594 35.742188 236.320312 36.976562 C 237.332031 38.210938 238.3125 39.46875 239.265625 40.75 C 240.214844 42.03125 241.132812 43.335938 242.015625 44.660156 C 242.902344 45.988281 243.757812 47.335938 244.574219 48.703125 C 245.394531 50.070312 246.179688 51.460938 246.933594 52.867188 C 247.683594 54.273438 248.402344 55.699219 249.082031 57.140625 C 249.765625 58.582031 250.410156 60.039062 251.019531 61.515625 C 251.632812 62.988281 252.203125 64.476562 252.742188 65.980469 C 253.28125 67.480469 253.78125 68.996094 254.242188 70.523438 C 254.707031 72.046875 255.128906 73.585938 255.519531 75.132812 C 255.90625 76.679688 256.253906 78.238281 256.566406 79.800781 C 256.875 81.367188 257.148438 82.9375 257.382812 84.515625 C 257.617188 86.09375 257.8125 87.675781 257.96875 89.265625 C 258.125 90.851562 258.242188 92.445312 258.320312 94.035156 C 258.398438 95.628906 258.4375 97.226562 258.4375 98.820312 Z M 258.4375 98.820312 " fill-opacity="1" fill-rule="nonzero"/><path fill="#000000" d="M 195.578125 300.078125 C 195.582031 303.015625 195.726562 305.949219 196.015625 308.871094 C 196.300781 311.796875 196.726562 314.699219 197.292969 317.582031 C 197.859375 320.464844 198.5625 323.3125 199.402344 326.125 C 200.242188 328.941406 201.214844 331.710938 202.324219 334.429688 C 203.429688 337.152344 204.664062 339.8125 206.03125 342.414062 C 207.394531 345.015625 208.878906 347.546875 210.484375 350.003906 C 212.09375 352.464844 213.8125 354.839844 215.648438 357.132812 C 217.488281 359.421875 219.429688 361.621094 221.476562 363.726562 C 201.808594 369.445312 181.738281 372.296875 161.257812 372.28125 C 155.152344 372.234375 149.058594 371.949219 142.980469 371.421875 C 136.898438 370.894531 130.847656 370.125 124.828125 369.121094 C 118.804688 368.113281 112.835938 366.871094 106.910156 365.394531 C 100.988281 363.917969 95.132812 362.207031 89.347656 360.265625 C 83.558594 358.324219 77.855469 356.160156 72.242188 353.765625 C 66.625 351.375 61.109375 348.765625 55.699219 345.9375 C 50.289062 343.109375 45 340.074219 39.828125 336.828125 C 34.660156 333.582031 29.625 330.136719 24.726562 326.496094 C 22.945312 325.164062 21.34375 323.648438 19.917969 321.945312 C 18.492188 320.242188 17.28125 318.394531 16.289062 316.40625 C 15.296875 314.417969 14.546875 312.34375 14.039062 310.179688 C 13.53125 308.015625 13.277344 305.824219 13.285156 303.601562 C 13.300781 300.597656 13.425781 297.59375 13.652344 294.597656 C 13.882812 291.601562 14.21875 288.617188 14.65625 285.644531 C 15.097656 282.671875 15.644531 279.71875 16.292969 276.785156 C 16.941406 273.851562 17.695312 270.941406 18.550781 268.0625 C 19.40625 265.179688 20.363281 262.332031 21.417969 259.519531 C 22.476562 256.707031 23.632812 253.9375 24.886719 251.203125 C 26.140625 248.472656 27.488281 245.789062 28.929688 243.15625 C 30.375 240.519531 31.910156 237.9375 33.535156 235.410156 C 35.164062 232.886719 36.875 230.417969 38.675781 228.015625 C 40.476562 225.609375 42.363281 223.269531 44.328125 221 C 46.296875 218.726562 48.339844 216.527344 50.460938 214.402344 C 52.585938 212.273438 54.78125 210.226562 57.046875 208.253906 C 59.3125 206.285156 61.648438 204.394531 64.050781 202.589844 C 66.449219 200.785156 68.914062 199.066406 71.4375 197.4375 C 73.957031 195.804688 76.535156 194.265625 79.167969 192.816406 C 81.800781 191.371094 84.480469 190.015625 87.207031 188.757812 C 88.496094 189.8125 89.804688 190.839844 91.132812 191.839844 C 92.464844 192.839844 93.816406 193.8125 95.1875 194.753906 C 96.558594 195.695312 97.949219 196.605469 99.363281 197.488281 C 100.773438 198.371094 102.203125 199.222656 103.648438 200.042969 C 105.097656 200.863281 106.5625 201.652344 108.042969 202.410156 C 109.527344 203.167969 111.023438 203.894531 112.535156 204.585938 C 114.046875 205.28125 115.574219 205.941406 117.117188 206.570312 C 118.65625 207.199219 120.210938 207.792969 121.777344 208.355469 C 123.34375 208.914062 124.921875 209.441406 126.511719 209.9375 C 128.097656 210.429688 129.699219 210.890625 131.308594 211.316406 C 132.914062 211.738281 134.53125 212.128906 136.160156 212.484375 C 137.785156 212.839844 139.417969 213.164062 141.054688 213.449219 C 142.695312 213.734375 144.339844 213.984375 145.988281 214.199219 C 147.640625 214.414062 149.292969 214.59375 150.949219 214.738281 C 152.609375 214.882812 154.269531 214.988281 155.929688 215.0625 C 157.59375 215.136719 159.257812 215.171875 160.917969 215.171875 C 162.582031 215.175781 164.246094 215.140625 165.910156 215.070312 C 167.570312 215 169.230469 214.894531 170.890625 214.753906 C 172.546875 214.613281 174.203125 214.4375 175.851562 214.222656 C 177.503906 214.011719 179.148438 213.765625 180.789062 213.480469 C 182.425781 213.199219 184.058594 212.882812 185.6875 212.527344 C 187.3125 212.175781 188.929688 211.789062 190.539062 211.367188 C 192.148438 210.941406 193.75 210.488281 195.339844 209.996094 C 196.929688 209.503906 198.507812 208.980469 200.074219 208.421875 C 201.640625 207.863281 203.195312 207.269531 204.738281 206.644531 C 206.28125 206.019531 207.808594 205.363281 209.324219 204.671875 C 210.835938 203.980469 212.335938 203.257812 213.816406 202.5 C 215.300781 201.746094 216.765625 200.960938 218.214844 200.140625 C 219.664062 199.324219 221.09375 198.472656 222.507812 197.59375 C 223.921875 196.714844 225.3125 195.804688 226.6875 194.867188 C 228.0625 193.925781 229.414062 192.957031 230.746094 191.960938 C 232.078125 190.960938 233.386719 189.9375 234.675781 188.882812 C 245.078125 193.46875 254.589844 199.464844 263.214844 206.871094 C 264.65625 208.011719 265.578125 209.480469 265.980469 211.273438 C 263.507812 211.871094 261.0625 212.566406 258.648438 213.367188 C 256.230469 214.164062 253.851562 215.0625 251.511719 216.058594 C 249.167969 217.054688 246.875 218.148438 244.621094 219.335938 C 242.371094 220.523438 240.175781 221.800781 238.03125 223.171875 C 235.886719 224.542969 233.800781 226 231.777344 227.542969 C 229.753906 229.085938 227.796875 230.710938 225.910156 232.414062 C 224.019531 234.121094 222.207031 235.902344 220.464844 237.757812 C 218.722656 239.617188 217.0625 241.539062 215.480469 243.535156 C 213.898438 245.53125 212.402344 247.585938 210.992188 249.707031 C 209.582031 251.824219 208.261719 253.996094 207.03125 256.226562 C 205.800781 258.453125 204.667969 260.730469 203.625 263.054688 C 202.585938 265.375 201.640625 267.738281 200.796875 270.140625 C 199.949219 272.539062 199.207031 274.972656 198.5625 277.4375 C 197.917969 279.898438 197.378906 282.382812 196.941406 284.890625 C 196.503906 287.398438 196.171875 289.921875 195.945312 292.457031 C 195.71875 294.992188 195.59375 297.535156 195.578125 300.078125 Z M 195.578125 300.078125 " fill-opacity="1" fill-rule="nonzero"/><path fill="#000000" d="M 286.722656 227.75 C 285.542969 227.75 284.359375 227.78125 283.175781 227.839844 C 281.996094 227.898438 280.816406 227.984375 279.640625 228.101562 C 278.460938 228.214844 277.289062 228.359375 276.117188 228.535156 C 274.949219 228.707031 273.78125 228.910156 272.621094 229.140625 C 271.460938 229.371094 270.308594 229.632812 269.160156 229.917969 C 268.011719 230.207031 266.871094 230.523438 265.742188 230.867188 C 264.609375 231.210938 263.484375 231.582031 262.371094 231.980469 C 261.257812 232.378906 260.152344 232.804688 259.0625 233.257812 C 257.96875 233.710938 256.886719 234.191406 255.816406 234.695312 C 254.746094 235.203125 253.691406 235.734375 252.648438 236.292969 C 251.605469 236.851562 250.574219 237.433594 249.5625 238.042969 C 248.546875 238.652344 247.546875 239.285156 246.5625 239.941406 C 245.578125 240.597656 244.613281 241.28125 243.664062 241.984375 C 242.710938 242.691406 241.78125 243.417969 240.863281 244.167969 C 239.949219 244.921875 239.054688 245.691406 238.179688 246.488281 C 237.300781 247.28125 236.445312 248.097656 235.609375 248.9375 C 234.773438 249.773438 233.957031 250.628906 233.164062 251.507812 C 232.367188 252.382812 231.59375 253.28125 230.84375 254.195312 C 230.09375 255.109375 229.367188 256.042969 228.660156 256.992188 C 227.957031 257.945312 227.277344 258.910156 226.617188 259.894531 C 225.960938 260.878906 225.328125 261.878906 224.71875 262.894531 C 224.113281 263.910156 223.53125 264.941406 222.972656 265.984375 C 222.414062 267.027344 221.882812 268.085938 221.375 269.15625 C 220.871094 270.226562 220.390625 271.308594 219.9375 272.402344 C 219.484375 273.496094 219.058594 274.597656 218.660156 275.710938 C 218.261719 276.828125 217.890625 277.949219 217.546875 279.082031 C 217.207031 280.214844 216.890625 281.355469 216.601562 282.503906 C 216.316406 283.652344 216.054688 284.808594 215.824219 285.96875 C 215.59375 287.128906 215.390625 288.296875 215.21875 289.464844 C 215.042969 290.636719 214.898438 291.8125 214.785156 292.988281 C 214.667969 294.167969 214.582031 295.347656 214.523438 296.53125 C 214.464844 297.710938 214.4375 298.894531 214.4375 300.078125 C 214.4375 301.261719 214.464844 302.445312 214.523438 303.628906 C 214.582031 304.808594 214.667969 305.992188 214.785156 307.167969 C 214.898438 308.347656 215.042969 309.519531 215.21875 310.691406 C 215.390625 311.863281 215.59375 313.027344 215.824219 314.191406 C 216.054688 315.351562 216.316406 316.503906 216.601562 317.652344 C 216.890625 318.800781 217.207031 319.941406 217.546875 321.074219 C 217.890625 322.207031 218.261719 323.332031 218.660156 324.445312 C 219.058594 325.558594 219.484375 326.664062 219.9375 327.757812 C 220.390625 328.851562 220.871094 329.933594 221.375 331.003906 C 221.882812 332.074219 222.414062 333.128906 222.972656 334.175781 C 223.53125 335.21875 224.113281 336.246094 224.71875 337.261719 C 225.328125 338.277344 225.960938 339.277344 226.617188 340.261719 C 227.277344 341.246094 227.957031 342.214844 228.660156 343.164062 C 229.367188 344.117188 230.09375 345.046875 230.84375 345.964844 C 231.59375 346.878906 232.367188 347.773438 233.164062 348.652344 C 233.957031 349.527344 234.773438 350.386719 235.609375 351.222656 C 236.445312 352.058594 237.300781 352.875 238.179688 353.671875 C 239.054688 354.464844 239.949219 355.238281 240.863281 355.988281 C 241.78125 356.738281 242.710938 357.46875 243.664062 358.171875 C 244.613281 358.878906 245.578125 359.558594 246.5625 360.21875 C 247.546875 360.875 248.546875 361.507812 249.5625 362.117188 C 250.574219 362.726562 251.605469 363.308594 252.648438 363.867188 C 253.691406 364.425781 254.746094 364.957031 255.816406 365.460938 C 256.886719 365.96875 257.96875 366.449219 259.0625 366.902344 C 260.152344 367.355469 261.257812 367.78125 262.371094 368.179688 C 263.484375 368.578125 264.609375 368.949219 265.742188 369.292969 C 266.871094 369.636719 268.011719 369.953125 269.160156 370.238281 C 270.308594 370.527344 271.460938 370.785156 272.621094 371.015625 C 273.78125 371.246094 274.949219 371.449219 276.117188 371.625 C 277.289062 371.796875 278.460938 371.941406 279.640625 372.058594 C 280.816406 372.175781 281.996094 372.261719 283.175781 372.320312 C 284.359375 372.378906 285.542969 372.40625 286.722656 372.40625 C 287.90625 372.40625 289.089844 372.378906 290.273438 372.320312 C 291.453125 372.261719 292.632812 372.175781 293.808594 372.058594 C 294.988281 371.941406 296.160156 371.796875 297.332031 371.625 C 298.5 371.449219 299.667969 371.246094 300.828125 371.015625 C 301.988281 370.785156 303.140625 370.527344 304.289062 370.238281 C 305.4375 369.953125 306.578125 369.636719 307.707031 369.292969 C 308.839844 368.949219 309.964844 368.578125 311.078125 368.179688 C 312.191406 367.78125 313.296875 367.355469 314.386719 366.902344 C 315.480469 366.449219 316.5625 365.96875 317.632812 365.460938 C 318.703125 364.957031 319.757812 364.425781 320.800781 363.867188 C 321.84375 363.308594 322.875 362.726562 323.886719 362.117188 C 324.902344 361.507812 325.902344 360.875 326.886719 360.21875 C 327.871094 359.558594 328.835938 358.878906 329.785156 358.171875 C 330.738281 357.46875 331.667969 356.738281 332.585938 355.988281 C 333.5 355.238281 334.394531 354.464844 335.269531 353.671875 C 336.148438 352.875 337.003906 352.058594 337.839844 351.222656 C 338.675781 350.386719 339.492188 349.527344 340.285156 348.652344 C 341.082031 347.773438 341.855469 346.878906 342.605469 345.964844 C 343.355469 345.046875 344.082031 344.117188 344.789062 343.164062 C 345.492188 342.214844 346.171875 341.246094 346.832031 340.261719 C 347.488281 339.277344 348.121094 338.277344 348.730469 337.261719 C 349.335938 336.246094 349.917969 335.21875 350.476562 334.175781 C 351.035156 333.128906 351.566406 332.074219 352.074219 331.003906 C 352.578125 329.933594 353.058594 328.851562 353.511719 327.757812 C 353.964844 326.664062 354.390625 325.558594 354.789062 324.445312 C 355.1875 323.332031 355.558594 322.207031 355.902344 321.074219 C 356.242188 319.941406 356.558594 318.800781 356.847656 317.652344 C 357.132812 316.503906 357.394531 315.351562 357.625 314.191406 C 357.855469 313.027344 358.058594 311.863281 358.230469 310.691406 C 358.40625 309.519531 358.550781 308.347656 358.664062 307.167969 C 358.78125 305.992188 358.867188 304.808594 358.925781 303.628906 C 358.984375 302.445312 359.011719 301.261719 359.011719 300.078125 C 359.011719 298.894531 358.984375 297.710938 358.925781 296.53125 C 358.867188 295.347656 358.78125 294.167969 358.664062 292.988281 C 358.550781 291.8125 358.40625 290.636719 358.230469 289.464844 C 358.058594 288.296875 357.855469 287.128906 357.625 285.96875 C 357.394531 284.808594 357.132812 283.652344 356.847656 282.503906 C 356.558594 281.355469 356.242188 280.214844 355.902344 279.082031 C 355.558594 277.949219 355.1875 276.828125 354.789062 275.710938 C 354.390625 274.597656 353.964844 273.496094 353.511719 272.402344 C 353.058594 271.308594 352.578125 270.226562 352.074219 269.15625 C 351.566406 268.085938 351.035156 267.027344 350.476562 265.984375 C 349.917969 264.941406 349.335938 263.910156 348.730469 262.894531 C 348.121094 261.878906 347.488281 260.878906 346.832031 259.894531 C 346.171875 258.910156 345.492188 257.945312 344.789062 256.992188 C 344.082031 256.042969 343.355469 255.109375 342.605469 254.195312 C 341.855469 253.28125 341.082031 252.382812 340.285156 251.507812 C 339.492188 250.628906 338.675781 249.773438 337.839844 248.9375 C 337.003906 248.097656 336.148438 247.28125 335.269531 246.488281 C 334.394531 245.691406 333.5 244.921875 332.585938 244.167969 C 331.667969 243.417969 330.738281 242.691406 329.785156 241.984375 C 328.835938 241.28125 327.871094 240.597656 326.886719 239.941406 C 325.902344 239.285156 324.902344 238.652344 323.886719 238.042969 C 322.875 237.433594 321.84375 236.851562 320.800781 236.292969 C 319.757812 235.734375 318.703125 235.203125 317.632812 234.695312 C 316.5625 234.191406 315.480469 233.710938 314.386719 233.257812 C 313.296875 232.804688 312.191406 232.378906 311.078125 231.980469 C 309.964844 231.582031 308.839844 231.210938 307.707031 230.867188 C 306.578125 230.523438 305.4375 230.207031 304.289062 229.917969 C 303.140625 229.632812 301.988281 229.371094 300.828125 229.140625 C 299.667969 228.910156 298.5 228.707031 297.332031 228.535156 C 296.160156 228.359375 294.988281 228.214844 293.808594 228.101562 C 292.632812 227.984375 291.453125 227.898438 290.273438 227.839844 C 289.089844 227.78125 287.90625 227.75 286.722656 227.75 Z M 242.332031 293.414062 L 267.476562 268.253906 C 267.921875 267.828125 268.402344 267.449219 268.917969 267.117188 C 269.433594 266.78125 269.980469 266.5 270.550781 266.269531 C 271.121094 266.042969 271.710938 265.867188 272.3125 265.75 C 272.917969 265.632812 273.527344 265.578125 274.144531 265.578125 C 274.757812 265.578125 275.367188 265.632812 275.972656 265.75 C 276.578125 265.867188 277.164062 266.042969 277.734375 266.269531 C 278.304688 266.5 278.851562 266.78125 279.367188 267.117188 C 279.882812 267.449219 280.363281 267.828125 280.808594 268.253906 C 281.246094 268.691406 281.636719 269.167969 281.980469 269.683594 C 282.324219 270.199219 282.617188 270.742188 282.851562 271.316406 C 283.089844 271.886719 283.269531 272.476562 283.390625 273.085938 C 283.511719 273.691406 283.570312 274.304688 283.570312 274.925781 C 283.570312 275.542969 283.511719 276.15625 283.390625 276.765625 C 283.269531 277.371094 283.089844 277.960938 282.851562 278.535156 C 282.617188 279.105469 282.324219 279.648438 281.980469 280.164062 C 281.636719 280.679688 281.246094 281.15625 280.808594 281.59375 L 271.757812 290.652344 L 324.429688 290.652344 C 325.046875 290.652344 325.660156 290.710938 326.265625 290.832031 C 326.875 290.953125 327.464844 291.132812 328.035156 291.371094 C 328.609375 291.605469 329.152344 291.898438 329.667969 292.242188 C 330.179688 292.585938 330.65625 292.976562 331.09375 293.414062 C 331.53125 293.851562 331.921875 294.328125 332.269531 294.84375 C 332.613281 295.359375 332.902344 295.902344 333.140625 296.476562 C 333.375 297.046875 333.554688 297.636719 333.675781 298.246094 C 333.796875 298.851562 333.855469 299.464844 333.855469 300.085938 C 333.855469 300.703125 333.796875 301.320312 333.675781 301.925781 C 333.554688 302.535156 333.375 303.125 333.140625 303.695312 C 332.902344 304.269531 332.613281 304.8125 332.269531 305.328125 C 331.921875 305.839844 331.53125 306.316406 331.09375 306.757812 C 330.65625 307.195312 330.179688 307.585938 329.667969 307.929688 C 329.152344 308.273438 328.609375 308.5625 328.035156 308.800781 C 327.464844 309.039062 326.875 309.21875 326.265625 309.339844 C 325.660156 309.460938 325.046875 309.519531 324.429688 309.519531 L 271.765625 309.519531 L 280.816406 318.578125 C 281.234375 319.019531 281.605469 319.496094 281.929688 320.011719 C 282.257812 320.523438 282.53125 321.0625 282.75 321.632812 C 282.972656 322.199219 283.136719 322.78125 283.246094 323.378906 C 283.355469 323.976562 283.402344 324.582031 283.394531 325.191406 C 283.386719 325.796875 283.320312 326.398438 283.195312 326.996094 C 283.070312 327.589844 282.890625 328.167969 282.652344 328.730469 C 282.417969 329.289062 282.128906 329.824219 281.789062 330.328125 C 281.449219 330.832031 281.066406 331.300781 280.636719 331.730469 C 280.207031 332.160156 279.738281 332.546875 279.234375 332.886719 C 278.730469 333.226562 278.199219 333.511719 277.636719 333.75 C 277.078125 333.988281 276.5 334.167969 275.90625 334.292969 C 275.308594 334.417969 274.707031 334.484375 274.101562 334.492188 C 273.492188 334.503906 272.890625 334.453125 272.289062 334.34375 C 271.691406 334.234375 271.109375 334.070312 270.542969 333.851562 C 269.976562 333.628906 269.4375 333.355469 268.921875 333.03125 C 268.410156 332.707031 267.929688 332.332031 267.488281 331.914062 L 242.34375 306.757812 C 241.917969 306.316406 241.535156 305.835938 241.199219 305.316406 C 240.859375 304.800781 240.578125 304.257812 240.34375 303.683594 C 240.113281 303.113281 239.9375 302.523438 239.820312 301.917969 C 239.703125 301.3125 239.644531 300.703125 239.640625 300.085938 C 239.640625 299.46875 239.699219 298.855469 239.816406 298.25 C 239.933594 297.644531 240.105469 297.058594 240.335938 296.484375 C 240.566406 295.914062 240.851562 295.367188 241.1875 294.847656 C 241.519531 294.332031 241.902344 293.851562 242.332031 293.40625 Z M 242.332031 293.414062 " fill-opacity="1" fill-rule="nonzero"/></svg>