<svg xmlns="http://www.w3.org/2000/svg" xmlns:xlink="http://www.w3.org/1999/xlink" width="500" zoomAndPan="magnify" viewBox="0 0 375 374.999991" height="500" preserveAspectRatio="xMidYMid meet" version="1.0"><path fill="#000000" d="M 187.5 236.003906 L 6.523438 300.40625 L 185.054688 372.960938 C 185.871094 372.960938 186.683594 373.777344 188.316406 373.777344 C 189.128906 373.777344 190.761719 373.777344 191.574219 372.960938 L 368.476562 300.40625 Z M 187.5 236.003906 " fill-opacity="1" fill-rule="nonzero"/><path fill="#000000" d="M 369.292969 64.808594 L 195.652344 1.222656 L 195.652344 221.332031 L 244.566406 238.449219 L 244.566406 101.496094 L 317.933594 128.398438 L 317.933594 264.539062 L 375 284.917969 L 375 72.148438 C 375 68.886719 372.554688 65.625 369.292969 64.808594 Z M 369.292969 64.808594 " fill-opacity="1" fill-rule="nonzero"/><path fill="#000000" d="M 5.707031 64.808594 C 2.445312 65.625 0 68.886719 0 72.148438 L 0 285.734375 L 179.347656 221.332031 L 179.347656 1.222656 Z M 130.433594 178.941406 L 57.066406 207.472656 L 57.066406 125.949219 L 130.433594 96.601562 Z M 130.433594 178.941406 " fill-opacity="1" fill-rule="nonzero"/></svg>