<svg xmlns="http://www.w3.org/2000/svg" xmlns:xlink="http://www.w3.org/1999/xlink" width="500" zoomAndPan="magnify" viewBox="0 0 375 374.999991" height="500" preserveAspectRatio="xMidYMid meet" version="1.0"><defs><filter x="0%" y="0%" width="100%" height="100%" id="b3423a4930"><feColorMatrix values="0 0 0 0 1 0 0 0 0 1 0 0 0 0 1 0 0 0 1 0" color-interpolation-filters="sRGB"/></filter><clipPath id="027855a116"><path d="M 9 8 L 375 8 L 375 372.609375 L 9 372.609375 Z M 9 8 " clip-rule="nonzero"/></clipPath><mask id="02a0b11bfe"><g filter="url(#b3423a4930)"><rect x="-37.5" width="450" fill="#000000" y="-37.499999" height="449.999989" fill-opacity="0.35"/></g></mask><clipPath id="74ad5481ce"><path d="M 1 2 L 364 2 L 364 364.609375 L 1 364.609375 Z M 1 2 " clip-rule="nonzero"/></clipPath><clipPath id="4baf4d15ad"><rect x="0" width="366" y="0" height="365"/></clipPath><clipPath id="deb400e5d5"><path d="M 1 2.109375 L 364 2.109375 L 364 365 L 1 365 Z M 1 2.109375 " clip-rule="nonzero"/></clipPath></defs><g clip-path="url(#027855a116)"><g mask="url(#02a0b11bfe)"><g transform="matrix(1, 0, 0, 1, 9, 8)"><g clip-path="url(#4baf4d15ad)"><g clip-path="url(#74ad5481ce)"><path fill="#000000" d="M 232.300781 364.839844 C 225.007812 364.839844 217.933594 362.65625 211.851562 358.535156 L 132.25 304.617188 L 91.269531 298.007812 C 79.363281 296.09375 70.066406 286.800781 68.152344 274.882812 L 61.546875 233.910156 L 7.613281 154.308594 C 1.125 144.734375 -0.453125 132.957031 3.296875 122.003906 C 7.042969 111.054688 15.5 102.71875 26.5 99.121094 L 315.449219 4.660156 C 319.117188 3.457031 322.953125 2.84375 326.824219 2.84375 C 336.546875 2.84375 345.703125 6.640625 352.601562 13.539062 C 362.390625 23.324219 365.792969 37.566406 361.492188 50.710938 L 267.035156 339.660156 C 263.441406 350.660156 255.101562 359.113281 244.152344 362.859375 C 240.3125 364.171875 236.328125 364.839844 232.300781 364.839844 Z M 232.300781 364.839844 " fill-opacity="1" fill-rule="nonzero"/></g></g></g></g></g><g clip-path="url(#deb400e5d5)"><path fill="#000000" d="M 232.710938 364.25 C 225.417969 364.25 218.34375 362.066406 212.257812 357.941406 L 132.660156 304.023438 L 91.679688 297.417969 C 79.773438 295.503906 70.476562 286.210938 68.5625 274.292969 L 61.953125 233.320312 L 8.023438 153.714844 C 1.535156 144.144531 -0.0429688 132.367188 3.707031 121.414062 C 7.453125 110.464844 15.910156 102.125 26.90625 98.53125 L 315.859375 4.066406 C 319.527344 2.863281 323.363281 2.25 327.234375 2.25 C 336.953125 2.25 346.113281 6.046875 353.011719 12.945312 C 362.800781 22.730469 366.203125 36.976562 361.902344 50.121094 L 267.445312 339.066406 C 263.847656 350.070312 255.511719 358.523438 244.5625 362.269531 C 240.722656 363.582031 236.734375 364.25 232.710938 364.25 Z M 232.710938 364.25 " fill-opacity="1" fill-rule="nonzero"/></g><path fill="#ffffff" d="M 324.535156 30.605469 L 35.585938 125.074219 C 30.15625 126.847656 27.9375 133.328125 31.144531 138.058594 L 88.53125 222.777344 L 96.125 269.859375 L 143.203125 277.453125 L 227.925781 334.839844 C 232.65625 338.046875 239.132812 335.828125 240.910156 330.398438 L 335.378906 41.449219 C 337.558594 34.753906 331.222656 28.417969 324.535156 30.605469 Z M 324.535156 30.605469 " fill-opacity="1" fill-rule="nonzero"/><path fill="#000000" d="M 88.53125 222.773438 L 268.867188 97.84375 L 143.203125 277.449219 L 96.125 269.855469 Z M 88.53125 222.773438 " fill-opacity="1" fill-rule="nonzero"/><path fill="#ffffff" d="M 232.710938 342.769531 C 229.753906 342.769531 226.847656 341.886719 224.308594 340.167969 L 140.773438 283.578125 L 95.097656 276.210938 C 92.359375 275.769531 90.207031 273.617188 89.769531 270.878906 L 82.402344 225.207031 L 25.808594 141.667969 C 23.136719 137.726562 22.488281 132.878906 24.027344 128.367188 C 25.570312 123.855469 29.054688 120.425781 33.585938 118.949219 L 322.535156 24.484375 C 327.941406 22.710938 333.804688 24.113281 337.839844 28.144531 C 341.867188 32.171875 343.269531 38.035156 341.5 43.449219 L 247.03125 332.394531 C 245.550781 336.925781 242.117188 340.402344 237.613281 341.949219 C 236.003906 342.5 234.351562 342.769531 232.710938 342.769531 Z M 101.75 264.230469 L 144.234375 271.085938 C 145.164062 271.234375 146.042969 271.585938 146.820312 272.109375 L 231.542969 329.496094 C 232.320312 330.027344 233.070312 329.878906 233.441406 329.753906 C 233.824219 329.625 234.496094 329.277344 234.785156 328.394531 L 329.25 39.441406 C 329.605469 38.351562 329.078125 37.597656 328.726562 37.25 C 328.378906 36.90625 327.632812 36.375 326.539062 36.730469 L 37.585938 131.199219 C 36.699219 131.484375 36.351562 132.164062 36.222656 132.542969 C 36.09375 132.921875 35.953125 133.667969 36.476562 134.4375 L 93.871094 219.164062 C 94.394531 219.941406 94.746094 220.820312 94.894531 221.75 Z M 101.75 264.230469 " fill-opacity="1" fill-rule="nonzero"/></svg>